<?xml version="1.0" encoding="UTF-8" standalone="no"?>
<!-- Created with Inkscape (http://www.inkscape.org/) -->

<svg
   width="1920"
   height="1080"
   viewBox="0 0 507.99998 285.75"
   version="1.1"
   id="svg1"
   xml:space="preserve"
   inkscape:version="1.4 (86a8ad7, 2024-10-11)"
   sodipodi:docname="team.svg"
   xmlns:inkscape="http://www.inkscape.org/namespaces/inkscape"
   xmlns:sodipodi="http://sodipodi.sourceforge.net/DTD/sodipodi-0.dtd"
   xmlns="http://www.w3.org/2000/svg"
   xmlns:svg="http://www.w3.org/2000/svg"><sodipodi:namedview
     id="namedview1"
     pagecolor="#505050"
     bordercolor="#eeeeee"
     borderopacity="1"
     inkscape:showpageshadow="0"
     inkscape:pageopacity="0"
     inkscape:pagecheckerboard="0"
     inkscape:deskcolor="#505050"
     inkscape:document-units="mm"
     showgrid="true"
     inkscape:zoom="0.7140625"
     inkscape:cx="960"
     inkscape:cy="530.06565"
     inkscape:window-width="1920"
     inkscape:window-height="1009"
     inkscape:window-x="-8"
     inkscape:window-y="-8"
     inkscape:window-maximized="1"
     inkscape:current-layer="svg1"
     showguides="true"><inkscape:grid
       id="grid1"
       units="mm"
       originx="0"
       originy="0"
       spacingx="0.99999996"
       spacingy="1"
       empcolor="#0099e5"
       empopacity="0.30196078"
       color="#0099e5"
       opacity="0.14902"
       empspacing="5"
       enabled="true"
       visible="true" /><sodipodi:guide
       position="204.53391,209.42031"
       orientation="1,0"
       id="guide1"
       inkscape:locked="false" /></sodipodi:namedview><defs
     id="defs1"><rect
       x="109.73978"
       y="111.07807"
       width="1287.4349"
       height="192.71375"
       id="rect2" /></defs><rect
     style="fill:#f8f8f8;fill-opacity:1;stroke:none;stroke-width:0.264583;stroke-linecap:round;stroke-linejoin:miter;stroke-dasharray:none;stroke-opacity:1;paint-order:normal"
     id="rect11"
     width="508.8262"
     height="286.10406"
     x="0"
     y="-0.35408923"
     inkscape:label="Background" /><g
     inkscape:label="Layer 1"
     inkscape:groupmode="layer"
     id="layer1"><rect
       style="fill:none;stroke:#625fc3;stroke-width:12.9514;stroke-linecap:round;stroke-linejoin:miter;stroke-dasharray:none;stroke-opacity:1;paint-order:normal"
       id="rect1"
       width="474.40329"
       height="251.6812"
       x="16.857349"
       y="16.14917"
       inkscape:label="Boarder" /><g
       id="g4"
       transform="matrix(2.7446589,0,0,2.7446589,274.9592,-118.88924)"
       style="stroke:#000000;stroke-opacity:1;stroke-width:0.28919805;stroke-dasharray:none">

<circle
   class="st0"
   cx="60"
   cy="83.699997"
   r="23.299999"
   id="circle1"
   style="fill:#424185;fill-opacity:1;stroke:#000000;stroke-opacity:1;stroke-width:0.28919805;stroke-dasharray:none" />

<circle
   class="st1"
   cx="60"
   cy="83.699997"
   r="18.700001"
   id="circle2"
   style="fill:#625fc3;fill-opacity:1;stroke:#000000;stroke-opacity:1;stroke-width:0.09639935;stroke-dasharray:none" />

<path
   class="st0"
   d="m 60,54.4 c -2.2,0 -4,1.8 -4,4 0,2.2 1.8,4 4,4 2.2,0 4,-1.8 4,-4 0,-2.2 -1.8,-4 -4,-4 z m 0,6.7 c -1.5,0 -2.6,-1.2 -2.6,-2.6 0,-1.4 1.2,-2.6 2.6,-2.6 1.4,0 2.6,1.2 2.6,2.6 0,1.4 -1.1,2.6 -2.6,2.6 z"
   id="path2-0"
   style="stroke:#000000;stroke-opacity:1;stroke-width:0.09639935;stroke-dasharray:none;fill:#ffd000;fill-opacity:1" />

<path
   class="st2"
   d="m 82.2,15.7 v 31.2 c 0,0.9 -0.6,1.8 -1.6,2.3 l -11.9,5.6 -7,3.2 c -1,0.5 -2.3,0.5 -3.3,0 L 51.5,54.7 39.6,49.1 C 38.6,48.6 38,47.7 38,46.8 V 15.7 C 38,14.2 39.5,13 41.3,13 H 79 c 1.7,0 3.2,1.2 3.2,2.7 z"
   id="path3-9"
   style="fill:#00b945;fill-opacity:1;stroke:#000000;stroke-opacity:1;stroke-width:0.28919805;stroke-dasharray:none" />

<path
   class="st3"
   d="M 68.6,13 V 54.8 L 61.7,58 c -1,0.5 -2.3,0.5 -3.3,0 L 51.5,54.7 V 13 Z"
   id="path4-4"
   style="fill:#625fc3;fill-opacity:1;stroke:#000000;stroke-opacity:1;stroke-width:0.09639935;stroke-dasharray:none" />

</g><g
       id="g1"
       transform="matrix(0.09253096,0,0,0.09253096,405.61878,75.447662)"
       style="stroke:#272729;stroke-width:2.8594;stroke-dasharray:none;stroke-opacity:1"><path
         d="m 0,0 c 39.08413,-0.13735319 78.168228,-0.24306813 117.25255,-0.30639198 4.61496,-0.007504 9.22991,-0.0152701 13.84486,-0.0231979 1.37812,-0.002361 1.37812,-0.002361 2.78409,-0.004769 14.87347,-0.0261031 29.7468,-0.073408 44.62019,-0.12855766 15.26311,-0.0561224 30.52615,-0.0894387 45.78936,-0.10161419 9.41721,-0.00823 18.83402,-0.034217 28.2511,-0.0829678 6.45892,-0.0317323 12.91764,-0.0412981 19.37663,-0.0335095 3.72585,0.003841 7.45102,-0.002018 11.17674,-0.0342246 4.04356,-0.0346978 8.08565,-0.0226762 12.12932,-0.006294 1.75829,-0.0262156 1.75829,-0.0262156 3.55211,-0.0529608 C 306.34352,-0.69162022 311.36373,0.80808128 317,6 c 5.22388,6.508589 4.46928,14.012987 4.25,22 -0.0181,1.25168 -0.0361,2.503359 -0.0547,3.792969 C 321.14845,34.862782 321.08284,37.930982 321,41 c 0.78649,-0.01571 1.57298,-0.03142 2.3833,-0.04761 3.58049,-0.06255 7.16087,-0.101449 10.7417,-0.139893 1.2375,-0.02514 2.475,-0.05027 3.75,-0.07617 1.79824,-0.0145 1.79824,-0.0145 3.63281,-0.0293 1.09973,-0.01571 2.19947,-0.03142 3.33252,-0.04761 C 351.04794,41.328533 354.96441,44.419061 359,49 c 3.10857,4.551835 4.12212,8.188143 4.13422,13.652507 0.004,0.935964 0.009,1.871928 0.0135,2.836254 -2.8e-4,1.537476 -2.8e-4,1.537476 -5.6e-4,3.106011 0.004,1.09146 0.007,2.18292 0.0111,3.307454 0.0111,3.67021 0.0149,7.340392 0.0187,11.010616 0.006,2.626349 0.0129,5.252696 0.0199,7.879043 0.0197,7.890172 0.0298,15.780345 0.0387,23.670535 0.004,3.71714 0.01,7.43428 0.015,11.15142 0.017,12.35898 0.0315,24.71797 0.0387,37.07696 0.002,3.20617 0.004,6.41235 0.006,9.61853 4.8e-4,0.79686 9.6e-4,1.59372 0.001,2.41473 0.008,12.90736 0.0336,25.81463 0.0661,38.72196 0.0331,13.25634 0.0511,26.51264 0.0543,39.76903 0.002,7.4411 0.0109,14.88207 0.0365,22.32313 0.0217,6.33734 0.0297,12.6745 0.02,19.01186 -0.005,3.2316 -4.9e-4,6.46277 0.0168,9.69433 0.0177,3.50894 0.0106,7.017 -0.003,10.52594 0.011,1.01383 0.0219,2.02766 0.0332,3.07221 -0.0648,7.16321 -1.27164,13.60011 -6.24174,19.04135 -5.0943,4.78444 -10.35565,6.38338 -17.33394,6.31144 -1.10859,-0.006 -2.21719,-0.0129 -3.35937,-0.0195 -1.14211,-0.0168 -2.28422,-0.0335 -3.46094,-0.0508 -1.16531,-0.009 -2.33063,-0.0181 -3.53125,-0.0273 -2.8648,-0.0235 -5.72917,-0.0563 -8.59375,-0.0977 0.021,0.74572 0.0419,1.49145 0.0635,2.25977 0.0837,3.41327 0.13535,6.82632 0.18652,10.24023 0.0335,1.17305 0.067,2.34609 0.10156,3.55469 0.0858,7.63117 -0.26298,13.67339 -5.7998,19.45849 -4.45998,3.91407 -7.93267,5.73773 -13.83848,5.73292 -1.61605,0.006 -1.61605,0.006 -3.26475,0.0121 -1.18287,-0.006 -2.36574,-0.0116 -3.58446,-0.0177 -1.8856,0.003 -1.8856,0.003 -3.80929,0.005 -3.49129,0.004 -6.98246,-0.004 -10.47374,-0.0136 -3.76411,-0.009 -7.52821,-0.006 -11.29233,-0.004 -6.52228,10e-4 -13.04451,-0.005 -19.56678,-0.0165 -9.43013,-0.0163 -18.86024,-0.0215 -28.29038,-0.024 -15.2993,-0.004 -30.59857,-0.0177 -45.89786,-0.0366 -14.86295,-0.0184 -29.7259,-0.0325 -44.58887,-0.041 -1.37393,-7.8e-4 -1.37393,-7.8e-4 -2.77562,-0.002 -4.59503,-0.003 -9.19006,-0.005 -13.78508,-0.008 C 76.256062,384.07991 38.128033,384.04468 0,384 c 1.5911146,-4.25365 3.5096851,-7.05546 6.5,-10.5 3.968478,-4.64234 7.770231,-9.37413 11.475586,-14.23169 0.420557,-0.55132 0.841113,-1.10263 1.274414,-1.67065 0.657422,-0.86214 0.657422,-0.86214 1.328125,-1.7417 2.704217,-3.52979 5.439681,-7.03532 8.171875,-10.54346 0.590471,-0.75845 1.180942,-1.5169 1.789307,-2.29834 1.210937,-1.5554 2.421957,-3.11074 3.633056,-4.66602 1.817503,-2.33512 3.633395,-4.67149 5.448731,-7.0083 5.712752,-7.35287 11.435875,-14.6969 17.196045,-22.01269 C 60.5631,304.56565 64.283292,299.78436 68,295 72.587332,289.09492 77.190572,283.20307 81.816406,277.32812 85.562557,272.56625 89.283042,267.78468 93,263 c 4.587332,-5.90508 9.19057,-11.79693 13.81641,-17.67188 4.3483,-5.52728 8.66352,-11.08013 12.97461,-16.63647 2.76205,-3.55725 5.53148,-7.10754 8.33398,-10.63306 11.16297,-12.80541 11.16297,-12.80541 15.20312,-28.60937 -0.99384,-7.41837 -6.48883,-13.04649 -11.18774,-18.52368 -3.50461,-4.09561 -6.75149,-8.33999 -9.95288,-12.67554 C 118.0914,152.71653 113.87354,147.31683 109.5,142 104.66515,136.12034 100.04807,130.11771 95.519531,124 91.968527,119.22805 88.277582,114.59411 84.5,110 80.193666,104.76284 76.034137,99.449612 72,94 67.402815,87.791595 62.618977,81.769165 57.721436,75.795654 52.675566,69.633032 47.823951,63.336882 43,57 33.117294,44.108084 23.15459,31.277981 13.125,18.5 12.683174,17.936438 12.241348,17.372876 11.786133,16.792236 8.3694947,12.444314 4.8853105,8.1537626 1.3632812,3.890625 0,2 0,2 0,0 Z"
         fill="#42b654"
         transform="translate(201)"
         id="path1"
         style="stroke:#272729;stroke-width:2.8594;stroke-dasharray:none;stroke-opacity:1" /><path
         d="m 0,0 c 39.08413,-0.13735319 78.168228,-0.24306813 117.25255,-0.30639198 4.61496,-0.007504 9.22991,-0.0152701 13.84486,-0.0231979 1.37812,-0.002361 1.37812,-0.002361 2.78409,-0.004769 14.87347,-0.0261031 29.7468,-0.073408 44.62019,-0.12855766 15.26311,-0.0561224 30.52615,-0.0894387 45.78936,-0.10161419 9.41721,-0.00823 18.83402,-0.034217 28.2511,-0.0829678 6.45892,-0.0317323 12.91764,-0.0412981 19.37663,-0.0335095 3.72585,0.003841 7.45102,-0.002018 11.17674,-0.0342246 4.04356,-0.0346978 8.08565,-0.0226762 12.12932,-0.006294 1.75829,-0.0262156 1.75829,-0.0262156 3.55211,-0.0529608 C 306.34701,-0.69158195 311.3578,0.81235279 317,6 c 5.34052,6.596352 4.4641,14.397291 4.25,22.5 -0.0181,1.299375 -0.0361,2.59875 -0.0547,3.9375 -0.0469,3.188272 -0.1125,6.374993 -0.19531,9.5625 -1.0046,0.0015 -2.0092,0.0029 -3.04424,0.0044 -24.43694,0.03659 -48.87374,0.09602 -73.31057,0.179459 -11.81744,0.03982 -23.63482,0.0722 -35.45232,0.08709 -10.29937,0.013 -20.59859,0.03993 -30.89788,0.08362 -5.45411,0.02265 -10.90804,0.0383 -16.36221,0.03727 -5.13332,-7.45e-4 -10.26624,0.01712 -15.39945,0.04928 -1.88415,0.0085 -3.76835,0.01023 -5.65252,0.0046 -2.57326,-0.0066 -5.14523,0.01125 -7.71836,0.03522 -0.74515,-0.0078 -1.4903,-0.01552 -2.25803,-0.02352 C 125.80562,42.541523 122.94435,43.82123 119,47 c -3.82181,4.14029 -5.72828,7.645125 -6.375,13.25 1.01921,10.192076 7.64961,17.289307 13.90039,24.937012 2.29857,2.826018 4.54192,5.694521 6.78711,8.562988 0.44545,0.566785 0.8909,1.133569 1.34985,1.717529 4.40318,5.603271 8.77361,11.231941 13.14551,16.859621 3.55053,4.56836 7.11283,9.12701 10.69214,13.67285 4.7943,6.0889 9.55283,12.2052 14.3064,18.32593 3.13044,4.02865 6.26991,8.04962 9.43017,12.05493 1.7726,2.24813 3.5381,4.50177 5.30249,6.75635 1.05213,1.34153 2.10717,2.68077 3.16406,4.01855 1.79471,2.27508 3.57785,4.55884 5.35938,6.84424 0.84123,1.05973 0.84123,1.05973 1.69946,2.14087 4.4528,5.74716 6.9053,11.07466 6.65991,18.46069 -1.58134,8.99024 -9.72536,16.721 -15.33984,23.60156 -2.77853,3.40622 -5.47835,6.86484 -8.14453,10.35938 -3.36469,4.40008 -6.75931,8.7742 -10.1875,13.125 -4.27108,5.42125 -8.51637,10.86196 -12.75,16.3125 -4.1521,5.34491 -8.3131,10.6823 -12.5,16 -5.97828,7.59529 -11.91436,15.22317 -17.83838,22.86084 -1.56451,2.01414 -3.13393,4.02435 -4.70459,6.03369 -0.9025,1.16004 -1.80485,2.32019 -2.70703,3.48047 -1.16789,1.4966 -1.16789,1.4966 -2.35937,3.02344 C 113.30079,315.7142 113.11443,321.27891 114,329 c 1.93723,5.509 4.90559,8.29195 9.99721,11.13421 3.33616,1.4422 6.68053,1.42226 10.24753,1.38477 0.80227,0.007 1.60454,0.015 2.43113,0.0227 2.67333,0.0202 5.34581,0.0122 8.0192,0.004 1.9222,0.009 3.84439,0.0192 5.76657,0.0313 5.20815,0.0279 10.41607,0.0313 15.62429,0.0303 5.44664,0.003 10.89316,0.0288 16.33974,0.052 10.30936,0.0406 20.61865,0.0609 30.92807,0.074 11.73881,0.0159 23.47751,0.0543 35.21626,0.0946 24.1433,0.0824 48.28659,0.13649 72.43,0.17195 0.11696,4.3331 0.18751,8.6658 0.25,13 0.0335,1.22074 0.067,2.44148 0.10156,3.69922 0.0839,7.76206 -0.16086,13.92781 -5.7998,19.81201 -4.45716,3.91719 -7.93347,5.73968 -13.83848,5.73487 -1.61605,0.006 -1.61605,0.006 -3.26475,0.0121 -1.18287,-0.006 -2.36574,-0.0116 -3.58446,-0.0177 -1.8856,0.003 -1.8856,0.003 -3.80929,0.005 -3.49129,0.004 -6.98246,-0.004 -10.47374,-0.0136 -3.76411,-0.009 -7.52821,-0.006 -11.29233,-0.004 -6.52228,10e-4 -13.04451,-0.005 -19.56678,-0.0165 -9.43013,-0.0163 -18.86024,-0.0215 -28.29038,-0.024 -15.2993,-0.004 -30.59857,-0.0177 -45.89786,-0.0366 -14.86295,-0.0184 -29.7259,-0.0325 -44.58887,-0.041 -1.37393,-7.8e-4 -1.37393,-7.8e-4 -2.77562,-0.002 -4.59503,-0.003 -9.19006,-0.005 -13.78508,-0.008 C 76.256062,384.07991 38.128033,384.04468 0,384 c 1.5911146,-4.25365 3.5096851,-7.05546 6.5,-10.5 3.968478,-4.64234 7.770231,-9.37413 11.475586,-14.23169 0.420557,-0.55132 0.841113,-1.10263 1.274414,-1.67065 0.657422,-0.86214 0.657422,-0.86214 1.328125,-1.7417 2.704217,-3.52979 5.439681,-7.03532 8.171875,-10.54346 0.590471,-0.75845 1.180942,-1.5169 1.789307,-2.29834 1.210937,-1.5554 2.421957,-3.11074 3.633056,-4.66602 1.817503,-2.33512 3.633395,-4.67149 5.448731,-7.0083 5.712752,-7.35287 11.435875,-14.6969 17.196045,-22.01269 C 60.5631,304.56565 64.283292,299.78436 68,295 72.587332,289.09492 77.190572,283.20307 81.816406,277.32812 85.562557,272.56625 89.283042,267.78468 93,263 c 4.587332,-5.90508 9.19057,-11.79693 13.81641,-17.67188 4.3483,-5.52728 8.66352,-11.08013 12.97461,-16.63647 2.76205,-3.55725 5.53148,-7.10754 8.33398,-10.63306 11.16297,-12.80541 11.16297,-12.80541 15.20312,-28.60937 -0.99384,-7.41837 -6.48883,-13.04649 -11.18774,-18.52368 -3.50461,-4.09561 -6.75149,-8.33999 -9.95288,-12.67554 C 118.0914,152.71653 113.87354,147.31683 109.5,142 104.66515,136.12034 100.04807,130.11771 95.519531,124 91.968527,119.22805 88.277582,114.59411 84.5,110 80.193666,104.76284 76.034137,99.449612 72,94 67.402815,87.791595 62.618977,81.769165 57.721436,75.795654 52.675566,69.633032 47.823951,63.336882 43,57 33.117294,44.108084 23.15459,31.277981 13.125,18.5 12.683174,17.936438 12.241348,17.372876 11.786133,16.792236 8.3694947,12.444314 4.8853105,8.1537626 1.3632812,3.890625 0,2 0,2 0,0 Z"
         fill="#252728"
         transform="translate(201)"
         id="path2"
         style="stroke:#272729;stroke-width:2.8594;stroke-dasharray:none;stroke-opacity:1" /><path
         d="m 0,0 c 8.2051089,6.5671204 14.283527,16.144287 20.486816,24.529541 3.627299,4.888739 7.391733,9.64243 11.251465,14.349365 5.602803,6.833252 11.02298,13.781931 16.375,20.8125 1.581911,2.063591 3.165275,4.126069 4.75,6.1875 0.602556,0.784314 0.602556,0.784314 1.217285,1.584473 3.072852,3.994589 6.167786,7.971658 9.267334,11.945557 2.381209,3.054829 4.75718,6.113689 7.130616,9.17456 1.039102,1.339847 2.079339,2.678816 3.121093,4.016602 1.282281,1.650274 2.555774,3.306879 3.826172,4.966308 0.697383,0.904922 1.394766,1.809844 2.113281,2.742184 3.291533,4.98222 3.158349,10.57692 2.574219,16.38282 -2.711034,7.74581 -8.405454,13.84138 -13.512207,20.15332 -2.357793,2.92654 -4.671284,5.88743 -6.987793,8.84668 -0.920328,1.17206 -1.840901,2.34394 -2.761719,3.51562 -0.454233,0.57815 -0.908466,1.15629 -1.376464,1.75195 -1.334667,1.69789 -2.670358,3.39496 -4.006348,5.0918 -7.490394,9.51695 -14.925825,19.07621 -22.355469,28.64063 -4.114372,5.29656 -8.230899,10.59141 -12.352539,15.88232 -1.601772,2.05895 -3.199069,4.1213 -4.795898,6.18408 -0.971187,1.24883 -1.942533,2.49754 -2.914063,3.7461 -0.428855,0.55655 -0.85771,1.1131 -1.2995603,1.68652 -4.9441406,6.33428 -9.67350991,12.03543 -17.8879395,13.37598 -6.2381742,0.50945 -11.2689232,-1.38636 -16.5625002,-4.5625 -5.207457,-5.50503 -6.784654,-11.32184 -6.695434,-18.73755 -0.0062,-0.80974 -0.01248,-1.61947 -0.01891,-2.45374 -0.01586,-2.69305 -0.0034,-5.38519 0.0093,-8.07825 -0.0054,-1.93891 -0.01255,-3.87783 -0.02124,-5.81674 -0.0182,-5.25206 -0.01118,-10.50381 0.0015,-15.75588 0.01015,-5.5029 7.3e-4,-11.00577 -0.0055,-16.50867 -0.0073,-9.24021 0.0023,-18.48028 0.02136,-27.72046 0.02177,-10.67467 0.01472,-21.34903 -0.0073,-32.023693 -0.01817,-9.17391 -0.02071,-18.347728 -0.01025,-27.52165 0.0062,-5.475304 0.0071,-10.950465 -0.0061,-16.42576 -0.01158,-5.148182 -0.0035,-10.295971 0.01958,-15.444111 0.0053,-1.886557 0.0038,-3.773147 -0.0051,-5.65969 -0.01098,-2.580863 0.0028,-5.160477 0.02272,-7.741261 -0.0089,-0.741648 -0.01785,-1.483296 -0.02704,-2.247418 0.08914,-5.987911 1.83011,-11.2406176 5.946807,-15.7106384 C -18.361901,-3.0982595 -8.4574612,-4.8643113 0,0 Z"
         fill="#42b654"
         transform="translate(209.88672,80.308594)"
         id="path3"
         style="stroke:#272729;stroke-width:2.8594;stroke-dasharray:none;stroke-opacity:1" /><path
         d="m 0,0 c 5.94,0 11.88,0 18,0 0.750234,1.5120703 1.500469,3.0241406 2.273437,4.5820312 5.096923,10.2483808 10.229035,20.4692658 15.594483,30.5798338 4.923219,9.29474 9.719748,18.654645 14.527832,28.009278 0.739123,1.437771 1.478299,2.875515 2.217529,4.313232 0.550266,1.070206 0.550266,1.070206 1.111649,2.162033 2.425645,4.713603 4.866638,9.418964 7.318039,14.119217 6.453198,12.383804 12.787167,24.802395 18.722168,37.445805 0.415239,0.88413 0.830478,1.76827 1.2583,2.6792 0.360132,0.77375 0.720264,1.54751 1.091309,2.34472 0.758276,1.74266 0.758276,1.74266 1.885254,2.76465 0.244197,-0.54898 0.488394,-1.09796 0.73999,-1.66357 10.400469,-23.27215 21.73097,-46.130963 33.7251,-68.622807 C 121.75376,52.529972 124.88346,46.271896 128,40 c 3.73838,-7.519264 7.52321,-15.008097 11.4375,-22.4375 0.38865,-0.737988 0.7773,-1.475977 1.17773,-2.236328 C 143.34198,10.178794 146.15925,5.0853009 149,0 c 5.61,0 11.22,0 17,0 2.12022,19.183447 4.00792,38.377745 5.72733,57.601145 0.26017,2.905989 0.52179,5.811849 0.78333,8.717716 0.61646,6.849811 1.23036,13.699848 1.84261,20.550035 0.62835,7.029656 1.26151,14.058864 1.89687,21.087894 0.55071,6.09467 1.09831,12.1896 1.64348,18.28477 0.32343,3.61565 0.64803,7.23118 0.97572,10.84644 0.36342,4.01088 0.72035,8.02231 1.0767,12.03383 0.16125,1.76497 0.16125,1.76497 0.32575,3.56561 0.0966,1.0994 0.19327,2.19881 0.29283,3.33153 0.0846,0.9435 0.16919,1.88699 0.25635,2.85908 C 181.05233,162.91252 181,166.95891 181,171 c -8.58,0 -17.16,0 -26,0 -0.34781,-3.92459 -0.34781,-3.92459 -0.70264,-7.92847 -0.77369,-8.72909 -1.54814,-17.45811 -2.32295,-26.1871 -0.46888,-5.28265 -0.93751,-10.56533 -1.40556,-15.84805 -0.45328,-5.11591 -0.90724,-10.23177 -1.36164,-15.34758 -0.17163,-1.93359 -0.34303,-3.8672 -0.51418,-5.800836 C 147.51551,86.586679 146.28113,73.29171 145,60 c -0.44662,0.944704 -0.44662,0.944704 -0.90226,1.908493 -0.588,1.24352 -0.588,1.24352 -1.18787,2.512161 -0.38798,0.820584 -0.77597,1.641168 -1.1757,2.486618 -10.15861,21.456527 -20.66846,42.809608 -31.8787,63.737748 -5.28878,9.93918 -10.230925,20.06083 -15.232667,30.14648 -0.363596,0.73143 -0.727193,1.46285 -1.101807,2.21643 -0.692101,1.39245 -1.382512,2.78573 -2.071045,4.17994 C 89.112499,171.8875 89.112499,171.8875 88,173 c -1.852875,0.0723 -3.708339,0.0838 -5.5625,0.0625 -1.011914,-0.009 -2.023828,-0.018 -3.066406,-0.0273 C 78.197402,173.01775 78.197402,173.01775 77,173 c -0.380117,-0.74477 -0.380117,-0.74477 -0.767914,-1.50459 -2.692634,-5.27516 -5.386965,-10.54945 -8.082184,-15.82329 -0.999113,-1.95552 -1.997826,-3.91124 -2.996093,-5.86719 C 59.714085,139.14735 54.240135,128.51087 48.651459,117.93056 44.536779,110.13695 40.486273,102.31098 36.45752,94.472656 35.238593,92.102823 34.015781,89.735018 32.792969,87.367187 28.312365,78.666481 24.018917,69.925435 20,61 c -1.31385,12.034125 -2.481712,24.071037 -3.477266,36.135611 -0.22114,2.679676 -0.444891,5.359129 -0.669203,8.038539 -0.474282,5.67093 -0.945276,11.34213 -1.416031,17.01335 -0.549972,6.62088 -1.101337,13.24165 -1.655226,19.86221 -0.219063,2.62542 -0.436105,5.251 -0.653017,7.87661 -0.134872,1.61595 -0.269832,3.23191 -0.404892,4.84785 -0.05872,0.7175 -0.117435,1.435 -0.177932,2.17424 C 11.149999,161.65942 10.587475,166.3002 10,171 c -7.92,0 -15.84,0 -24,0 0,-13.50006 0,-13.50006 0.486801,-19.03238 0.107939,-1.25575 0.215878,-2.51151 0.327088,-3.80531 0.121101,-1.3479 0.242305,-2.69578 0.363601,-4.04366 0.1269,-1.45347 0.253341,-2.90697 0.379364,-4.36052 0.340426,-3.91141 0.687231,-7.82224 1.035293,-11.73298 0.364906,-4.11225 0.723934,-8.22503 1.08365,-12.33774 0.6044219,-6.90132 1.2125832,-13.80229 1.8234706,-20.703035 0.8593253,-9.707202 1.7120436,-19.414975 2.5633553,-29.122882 1.1431894,-13.032376 2.2883193,-26.064586 3.4410506,-39.096122 0.1239429,-1.401942 0.2476974,-2.803901 0.3712407,-4.205879 C -1.4617736,15.03461 -0.76934086,7.5148171 0,0 Z"
         fill="#252628"
         transform="translate(384,471)"
         id="path4"
         style="stroke:#272729;stroke-width:2.8594;stroke-dasharray:none;stroke-opacity:1" /><path
         d="m 0,0 c -0.64424333,3.2503173 -1.2906726,6.5001961 -1.9375,9.75 -0.1824023,0.920391 -0.3648047,1.840781 -0.5527344,2.789063 -0.1772461,0.889453 -0.3544922,1.778906 -0.5371094,2.695312 -0.1623413,0.816943 -0.3246826,1.633887 -0.4919433,2.475586 C -3.962692,19.822271 -4.4607998,21.910337 -5,24 -8.5667542,22.618656 -12.040615,21.075986 -15.519043,19.486816 -26.075788,14.711686 -36.358882,11.601803 -48,11 c -0.787617,-0.04125 -1.575234,-0.0825 -2.386719,-0.125 -19.826855,-0.510837 -37.944645,6.327445 -52.359371,19.839844 -12.06036,12.227569 -17.06763,27.846 -17.50391,44.785156 0.22138,17.452344 5.5113,33.77651 17.91797,46.39453 14.992384,13.53584 34.096326,19.02999 54.05078,18.39063 C -36.97391,139.66872 -28.328348,137.16417 -18,132 c 0.33,-11.22 0.66,-22.44 1,-34 -14.19,0 -28.38,0 -43,0 2,-9 2,-9 7,-22 20.13,0 40.26,0 61,0 0.4411969,17.438419 0.4411969,17.438419 0.5371094,24.89648 0.065661,5.08162 0.1431492,10.16104 0.2927246,15.24097 0.1199041,4.09807 0.1853632,8.1938 0.2138157,12.29349 0.020261,1.56039 0.059836,3.12065 0.1193809,4.68004 C 9.338579,137.90064 9.33568,142.34805 8,147 c -3.2562242,3.39116 -6.6999366,5.19375 -11,7 -1.2269133,0.62953 -2.4535403,1.25961 -3.6796875,1.89062 C -14.33584,159.14777 -21.816496,161.48736 -30,163 c -0.902666,0.17128 -1.805332,0.34257 -2.735352,0.51904 -29.283649,4.31415 -58.372056,-0.90892 -82.467778,-18.34326 C -125.30757,137.3152 -132.9583,128.3061 -139,117 c -0.44086,-0.80437 -0.88172,-1.60875 -1.33594,-2.4375 C -150.75756,93.845587 -151.11017,67.771976 -144,46 c 7.40782,-21.687034 23.10312,-38.1152355 43,-49 31.993558,-15.664378 69.933501,-13.524733 101,3 z"
         fill="#252628"
         transform="translate(339,481)"
         id="path5"
         style="stroke:#272729;stroke-width:2.8594;stroke-dasharray:none;stroke-opacity:1" /><path
         d="m 0,0 c -1.1632449,7.8416388 -2.7547013,15.395922 -5,23 -2.6641029,-1.063671 -5.325262,-2.133004 -7.980469,-3.21875 -13.153651,-5.255052 -25.867859,-8.594788 -39.503906,-3.042969 -5.218519,2.617363 -8.505109,5.534062 -11.453125,10.574219 -1.721547,5.974779 -2.058011,11.097424 0.5,16.875 6.007709,10.497899 18.041751,14.533056 28.761963,18.676514 C -17.435965,69.534019 -0.6514657,78.165216 7.2890625,95.875 12.660284,110.09521 12.897114,126.02371 6.640625,140.04687 -0.43816316,153.54766 -10.590352,161.2325 -25,166 c -19.978199,5.95598 -44.285632,3.19553 -62.898437,-5.85156 -4.954577,-2.70752 -4.954577,-2.70752 -5.99292,-5.82227 -0.235657,-1.10795 -0.471314,-2.2159 -0.714112,-3.35742 -0.261035,-1.2027 -0.52207,-2.40539 -0.791015,-3.64453 -0.261036,-1.26199 -0.522071,-2.52399 -0.791016,-3.82422 -0.272637,-1.26199 -0.545273,-2.52398 -0.826172,-3.82422 C -99,130.38634 -99,130.38634 -99,128 c 3.986194,0.65952 6.901893,2.65722 10.3125,4.75 14.884712,8.7965 33.244556,13.79993 50.519531,10.75 7.673927,-2.07467 14.048923,-5.00411 18.105469,-12.0625 3.735644,-7.30667 4.008447,-14.12629 1.625,-21.9375 C -22.342553,99.607199 -30.747758,95.184221 -40,91 -43.388073,89.666445 -46.817365,88.46314 -50.25,87.25 -66.685031,81.191699 -81.174538,72.333518 -89,56 -93.710872,44.373924 -93.362634,31.679068 -89.261719,19.9375 -87.353236,15.49422 -85.031044,11.757309 -82,8 c 0.455039,-0.6019922 0.910078,-1.2039844 1.378906,-1.8242188 3.763864,-4.3731579 8.368482,-6.89092405 13.433594,-9.4882812 0.65146,-0.3378149 1.30292,-0.6756299 1.974121,-1.0236816 C -45.587331,-13.883401 -18.420875,-10.804552 0,0 Z"
         fill="#252628"
         transform="translate(105,477)"
         id="path6"
         style="stroke:#272729;stroke-width:2.8594;stroke-dasharray:none;stroke-opacity:1" /><path
         d="m 0,0 c 3.63,0 7.26,0 11,0 4.173274,8.8364081 8.049383,17.757413 11.775055,26.788849 1.62862,3.946676 3.266849,7.889364 4.904632,11.832245 0.347408,0.836717 0.694815,1.673434 1.05275,2.535507 4.150987,9.986503 8.366405,19.94572 12.580063,29.905899 7.116344,16.825953 14.191491,33.66861 21.229248,50.52759 3.533042,8.45805 7.086539,16.90626 10.696533,25.33178 0.332986,0.77854 0.665972,1.55707 1.009049,2.3592 1.557109,3.64004 3.119185,7.27777 4.691391,10.91131 0.544086,1.26911 1.087964,2.53831 1.631591,3.80762 0.471959,1.09312 0.943917,2.18625 1.430176,3.3125 C 83,170 83,170 83,173 c -8.91,0 -17.82,0 -27,0 -2.58594,-5.17188 -5.025597,-10.23912 -7.214844,-15.56641 -0.291781,-0.70302 -0.583562,-1.40604 -0.884186,-2.13037 -0.948808,-2.28748 -1.893661,-4.57658 -2.83847,-6.86572 -1.009253,-2.43689 -2.019476,-4.87337 -3.029831,-7.3098 -0.684651,-1.65104 -1.368987,-3.30222 -2.053009,-4.95352 -2.103832,-5.07574 -4.223778,-10.14429 -6.362473,-15.20543 C 27.161845,105.68484 20.878773,90.341961 14.755615,74.921631 11.576056,66.916421 8.3474848,58.937053 5,51 c -0.3403125,0.891548 -0.680625,1.783096 -1.03125,2.70166 -8.1832849,21.399632 -16.768745,42.592393 -25.735016,63.67503 -4.001349,9.41423 -7.949218,18.85081 -11.896454,28.28783 -1.190785,2.8466 -2.382586,5.69276 -3.574585,8.53885 -0.730842,1.74599 -1.461638,3.492 -2.192382,5.23804 -0.498883,1.19109 -0.498883,1.19109 -1.007844,2.40625 -0.309203,0.73935 -0.618407,1.47871 -0.936981,2.24047 -0.267067,0.63818 -0.534135,1.27635 -0.809295,1.93386 -0.956751,2.31865 -1.884638,4.64912 -2.816193,6.97801 -8.91,0 -17.82,0 -27,0 1.852206,-5.55662 3.66091,-10.80866 5.90625,-16.17188 0.27661,-0.66296 0.553219,-1.32593 0.838211,-2.00898 0.915289,-2.19108 1.835337,-4.38012 2.755539,-6.56914 0.661908,-1.58121 1.323605,-3.16251 1.985107,-4.7439 6.047992,-14.44454 12.148204,-28.8672 18.246582,-43.29052 5.512348,-13.039765 10.994708,-26.09178 16.455811,-39.15308 5.588594,-13.36475 11.184504,-26.726344 16.8033752,-40.0784 0.7092032,-1.685344 1.4181708,-3.370788 2.1268921,-5.056335 0.9717559,-2.310856 1.9444148,-4.621329 2.9173889,-6.9316712 C -3.6772317,8.3118735 -3.3896198,7.6276532 -3.0932922,6.922699 -1.114885,2.2297701 -1.114885,2.2297701 0,0 Z"
         fill="#252628"
         transform="translate(653,469)"
         id="path7"
         style="stroke:#272729;stroke-width:2.8594;stroke-dasharray:none;stroke-opacity:1" /><path
         d="m 0,0 c 8.91,0 17.82,0 27,0 0,56.43 0,112.86 0,171 -8.91,0 -17.82,0 -27,0 C 0,114.57 0,58.14 0,0 Z"
         fill="#252628"
         transform="translate(140,471)"
         id="path8"
         style="stroke:#272729;stroke-width:2.8594;stroke-dasharray:none;stroke-opacity:1" /><path
         d="M 0,0 C 12,0 12,0 15.445313,3.0078125 16.379406,4.3527278 17.271517,5.7275394 18.125,7.125 c 0.731019,1.0807581 0.731019,1.0807581 1.476807,2.1833496 1.003256,1.4857444 1.990726,2.9822694 2.962158,4.4890134 2.176655,3.338623 4.531307,6.541798 6.873535,9.765137 1.521898,2.145078 3.042756,4.290895 4.5625,6.4375 1.65,2.31 3.3,4.62 5,7 0.33,-12.21 0.66,-24.42 1,-37 3.96,0 7.92,0 12,0 0,19.47 0,38.94 0,59 C 40,59 40,59 37.097656,56.570312 36.377672,55.447486 35.700889,54.296143 35.0625,53.125 34.260436,51.843407 33.455599,50.563545 32.648437,49.285156 32.02147,48.250925 32.02147,48.250925 31.381836,47.195801 28.852369,43.176362 25.996568,39.389047 23.1875,35.5625 22.117156,34.085601 21.048096,32.607771 19.980469,31.128906 19.525671,30.500569 19.070874,29.872231 18.602295,29.224854 16.392464,26.156411 14.197871,23.07702 12,20 11.67,32.87 11.34,45.74 11,59 7.37,59 3.74,59 0,59 0,39.53 0,20.06 0,0 Z"
         fill="#42b654"
         transform="translate(276,686)"
         id="path9"
         style="stroke:#272729;stroke-width:2.8594;stroke-dasharray:none;stroke-opacity:1" /><path
         d="m 0,0 c 12,0 12,0 16,3.9375 1.363874,2.0003483 2.692736,4.0247058 4,6.0625 1.464542,2.092797 2.951174,4.168966 4.4375,6.246338 1.493526,2.094437 2.967681,4.201139 4.4375,6.312256 C 32.525519,27.746893 36.268713,32.86948 40,38 40.33,25.46 40.66,12.92 41,0 c 3.63,0 7.26,0 11,0 0,19.47 0,38.94 0,59 C 41,59 41,59 38.597656,57.410156 38.091055,56.63543 37.584453,55.860703 37.0625,55.0625 36.434727,54.155 35.806953,53.2475 35.160156,52.3125 34.090879,50.672812 34.090879,50.672812 33,49 32.046357,47.641607 31.086291,46.287708 30.121094,44.9375 28.105268,42.116983 26.106106,39.286408 24.125,36.441406 20.474481,31.253107 16.731287,26.13052 13,21 12.67,33.54 12.34,46.08 12,59 8.04,59 4.08,59 0,59 0,39.53 0,20.06 0,0 Z"
         fill="#42b654"
         transform="translate(186,686)"
         id="path10"
         style="stroke:#272729;stroke-width:2.8594;stroke-dasharray:none;stroke-opacity:1" /><path
         d="m 0,0 c 7.7562905,4.5084365 11.188149,10.417962 14.355469,18.5625 1.795568,9.467542 1.20112,18.654702 -3.753906,27.074219 C 6.0104497,52.08132 -0.0254718,56.772151 -7.9570312,58.1875 -19.461939,58.954494 -28.018027,58.328555 -37.269531,50.9375 -42.902626,45.719594 -45.64985,39.467891 -46.195312,31.867187 -46.414982,20.606225 -44.804097,12.316912 -36.894531,3.8789063 -27.177049,-4.6042987 -11.40068,-5.4998258 0,0 Z m -30.332031,13.6875 c -0.53625,0.825 -1.0725,1.65 -1.625,2.5 -0.587813,0.897187 -0.587813,0.897187 -1.1875,1.8125 -2.443403,6.578392 -2.057145,12.647698 0.1875,19.1875 3.012081,5.701439 6.868784,8.956261 13,11 5.689857,0.563567 10.1690838,0.327964 14.9999998,-3 C 0.2087024,40.170421 3.2952548,35.375873 3.4804688,28 3.3564064,21.879589 1.5929645,17.161192 -1.9570312,12.1875 -6.485418,7.9081746 -11.501347,6.8275318 -17.542969,6.90625 c -5.285698,0.6158095 -9.170287,2.9720128 -12.789062,6.78125 z"
         fill="#42b654"
         transform="translate(135.95703,687.8125)"
         id="path11"
         style="stroke:#272729;stroke-width:2.8594;stroke-dasharray:none;stroke-opacity:1" /><path
         d="m 0,0 c 4.90875,-0.0825 9.8175,-0.165 14.875,-0.25 1.527378,-0.036416 3.054756,-0.072832 4.628418,-0.11035156 9.135409,-0.0739709 16.409415,0.84083102 24.082519,6.14941406 C 50.583968,12.970448 53.176206,19.452275 53.5,29.5 c -0.265516,8.496516 -1.916457,15.047541 -7.75,21.375 -6.758367,6.162468 -13.701738,8.260798 -22.703125,8.222656 -1.208174,-0.0025 -2.416348,-0.005 -3.661133,-0.0076 C 17.855947,59.080984 16.326152,59.07188 14.75,59.0625 9.8825,59.041875 5.015,59.02125 0,59 0,39.53 0,20.06 0,0 Z m 11,10 c 0,12.87 0,25.74 0,39 13.601405,0.908902 13.601405,0.908902 24,-4 5.902291,-6.212938 6.451833,-11.240992 6.3125,-19.644531 C 40.775655,19.591093 38.06058,16.847891 33.9375,13.1875 26.366585,7.5495849 22.6884,10 11,10 Z"
         fill="#42b654"
         transform="translate(684,686)"
         id="path12"
         style="stroke:#272729;stroke-width:2.8594;stroke-dasharray:none;stroke-opacity:1" /><path
         d="m 0,0 c 13.86,0 27.72,0 42,0 0,3.3 0,6.6 0,10 -9.9,0 -19.8,0 -30,0 0,4.62 0,9.24 0,14 9.57,0 19.14,0 29,0 0,3.3 0,6.6 0,10 -9.57,0 -19.14,0 -29,0 0,4.95 0,9.9 0,15 9.9,0 19.8,0 30,0 0,3.3 0,6.6 0,10 C 28.14,59 14.28,59 0,59 0,39.53 0,20.06 0,0 Z"
         fill="#42b654"
         transform="translate(606,686)"
         id="path13"
         style="stroke:#272729;stroke-width:2.8594;stroke-dasharray:none;stroke-opacity:1" /><path
         d="m 0,0 c 13.53,0 27.06,0 41,0 0,3.3 0,6.6 0,10 -9.9,0 -19.8,0 -30,0 0,4.62 0,9.24 0,14 9.57,0 19.14,0 29,0 0,3.3 0,6.6 0,10 -9.57,0 -19.14,0 -29,0 0,4.95 0,9.9 0,15 9.9,0 19.8,0 30,0 0,3.3 0,6.6 0,10 C 27.47,59 13.94,59 0,59 0,39.53 0,20.06 0,0 Z"
         fill="#42b654"
         transform="translate(366,686)"
         id="path14"
         style="stroke:#272729;stroke-width:2.8594;stroke-dasharray:none;stroke-opacity:1" /><path
         d="M 0,0 C 0.70745361,0.00418945 1.4149072,0.00837891 2.1437988,0.01269531 9.8843779,0.18044504 15.394604,1.9004594 21.125,7.3125 c 4,4.540541 4,4.540541 4,7 -6.5,4 -6.5,4 -11,4 -1.688169,-1.644883 -3.353533,-3.313375 -5,-5 -4.1062905,-2.330597 -8.37347959,-2.690144 -13,-2 -5.2604958,1.766228 -9.034383,4.209388 -12,9 -2.822249,6.208947 -2.93624,12.785757 -0.875,19.25 2.115192,5.008616 5.52777,7.452847 10.25,10.0625 6.57136366,1.721071 11.0763542,0.914983 16.960938,-2.144531 1.96797,-1.231265 1.96797,-1.231265 3.664062,-4.167969 4.389081,0.510358 7.337081,1.522143 11,4 -1.478206,3.506809 -3.42579,5.598581 -6.25,8.125 -0.747656,0.683203 -1.495313,1.366406 -2.265625,2.070312 C 9.4491613,62.7091 0.54962997,61.976055 -7.875,61.3125 -15.492333,59.513215 -22.332242,54.407413 -26.449219,47.777344 -30.728351,39.452041 -32.320078,31.737004 -30.226562,22.429687 -27.317285,13.50293 -22.153836,6.8922814 -13.875,2.3125 -9.2231161,0.44229412 -4.9673429,-0.0399597 0,0 Z"
         fill="#42b654"
         transform="translate(470.875,684.6875)"
         id="path15"
         style="stroke:#272729;stroke-width:2.8594;stroke-dasharray:none;stroke-opacity:1" /><path
         d="m 0,0 c 4.3171962,3.0495185 8.2063746,6.2558424 9.9023438,11.34375 -6.1818182,4 -6.1818182,4 -9.68750005,4 -2.77661895,-1.2007 -4.21738765,-2.839415 -6.31249995,-5 -4.3812928,-2.5035958 -9.0857368,-2.7944726 -13.9999998,-2 -5.622738,2.30651 -9.085607,5.637517 -12,11 -1.993749,5.981247 -1.999086,12.67434 0.6875,18.4375 2.697402,4.660883 6.423489,7.425821 11.3125,9.5625 6.330596,1.023367 11.7867584,-0.261968 16.9999997,-4 0.6600001,-0.99 1.3200001,-1.98 2.0000001,-3 4.8736284,0.453361 7.3904238,1.708916 11,5 -4.984888,6.242474 -9.28475988,10.428253 -17,13 C -17.397011,59.056872 -26.860419,59.255302 -35.339844,52.578125 -41.935557,46.441454 -45.580902,39.813118 -46.300781,30.800781 -46.470002,21.253924 -45.188261,14.346319 -38.847656,6.96875 -29.114818,-3.1122552 -12.880664,-6.9224296 0,0 Z"
         fill="#42b654"
         transform="translate(49.097656,687.65625)"
         id="path16"
         style="stroke:#272729;stroke-width:2.8594;stroke-dasharray:none;stroke-opacity:1" /><path
         d="m 0,0 c 15.51,0 31.02,0 47,0 0,3.3 0,6.6 0,10 -5.61,0 -11.22,0 -17,0 0,16.17 0,32.34 0,49 -3.96,0 -7.92,0 -12,0 C 18,42.83 18,26.66 18,10 12.06,10 6.12,10 0,10 0,6.7 0,3.4 0,0 Z"
         fill="#42b654"
         transform="translate(525,686)"
         id="path17"
         style="stroke:#272729;stroke-width:2.8594;stroke-dasharray:none;stroke-opacity:1" /></g><text
       xml:space="preserve"
       style="font-style:normal;font-variant:normal;font-weight:normal;font-stretch:normal;font-size:71.9769px;font-family:'Gill Sans MT';-inkscape-font-specification:'Gill Sans MT';text-align:center;letter-spacing:0px;writing-mode:lr-tb;direction:ltr;text-anchor:middle;white-space:pre;inline-size:394.876;display:inline;fill:#625fc3;fill-opacity:1;stroke:none;stroke-width:4.23332;stroke-linecap:round;stroke-linejoin:miter;stroke-dasharray:none;stroke-opacity:1;paint-order:normal"
       x="201.86414"
       y="74.856102"
       id="text3"
       transform="matrix(1,0,0,0.73568619,2.8327133,14.656281)"
       inkscape:label="Certificate"><tspan
         x="201.86414"
         y="74.856102"
         id="tspan3"><tspan
           style="font-family:'Eras Demi ITC';-inkscape-font-specification:'Eras Demi ITC'"
           id="tspan1">Certificate</tspan></tspan></text><text
       xml:space="preserve"
       style="font-style:normal;font-variant:normal;font-weight:normal;font-stretch:normal;font-size:49.3556px;font-family:'Gill Sans MT';-inkscape-font-specification:'Gill Sans MT';text-align:center;letter-spacing:0px;writing-mode:lr-tb;direction:ltr;text-anchor:middle;white-space:pre;inline-size:394.876;display:inline;fill:#625fc3;fill-opacity:1;stroke:none;stroke-width:4.23332;stroke-linecap:round;stroke-linejoin:miter;stroke-dasharray:none;stroke-opacity:1;paint-order:normal"
       x="171.02475"
       y="74.856102"
       id="text3-5"
       transform="matrix(1,0,0,0.73568619,33.418451,104.37708)"
       inkscape:label="Name"><tspan
         x="171.02475"
         y="74.856102"
         id="tspan12"><tspan
           style="font-family:'Eras Demi ITC';-inkscape-font-specification:'Eras Demi ITC'"
           id="tspan10">[Name]</tspan></tspan></text><text
       xml:space="preserve"
       style="font-style:normal;font-variant:normal;font-weight:normal;font-stretch:normal;font-size:24.6778px;font-family:'Gill Sans MT';-inkscape-font-specification:'Gill Sans MT';text-align:center;letter-spacing:0px;writing-mode:lr-tb;direction:ltr;text-anchor:middle;white-space:pre;inline-size:394.876;display:inline;fill:#625fc3;fill-opacity:1;stroke:none;stroke-width:4.23332;stroke-linecap:round;stroke-linejoin:miter;stroke-dasharray:none;stroke-opacity:1;paint-order:normal"
       x="171.02475"
       y="74.856102"
       id="text3-5-8"
       transform="matrix(1,0,0,0.73568619,33.532135,127.56374)"
       inkscape:label="Name"><tspan
         x="171.02475"
         y="74.856102"
         id="tspan14"><tspan
           style="font-family:'Eras Demi ITC';-inkscape-font-specification:'Eras Demi ITC'"
           id="tspan13">[Members]</tspan></tspan></text><text
       xml:space="preserve"
       style="font-style:normal;font-variant:normal;font-weight:normal;font-stretch:normal;font-size:59.9853px;font-family:'Gill Sans MT';-inkscape-font-specification:'Gill Sans MT';text-align:center;letter-spacing:3.70417px;writing-mode:lr-tb;direction:ltr;text-anchor:middle;fill:#272729;fill-opacity:1;stroke:none;stroke-width:0.224944;stroke-linecap:round;stroke-linejoin:miter;stroke-dasharray:none;stroke-opacity:1;paint-order:normal"
       x="172.0934"
       y="123.24543"
       id="text4"
       transform="scale(1.1762151,0.85018464)"
       inkscape:label="of Achievement"><tspan
         sodipodi:role="line"
         id="tspan4"
         style="font-style:normal;font-variant:normal;font-weight:normal;font-stretch:normal;font-size:59.9853px;font-family:'Freestyle Script';-inkscape-font-specification:'Freestyle Script';text-align:center;letter-spacing:3.70417px;text-anchor:middle;stroke-width:0.224944"
         x="173.9455"
         y="123.24543">of Achievement</tspan></text><text
       xml:space="preserve"
       style="font-style:normal;font-variant:normal;font-weight:normal;font-stretch:normal;font-size:15.875px;font-family:'Freestyle Script';-inkscape-font-specification:'Freestyle Script';text-align:center;letter-spacing:3.70417px;writing-mode:lr-tb;direction:ltr;text-anchor:middle;fill:#272729;fill-opacity:1;stroke:none;stroke-width:0.264583;stroke-linecap:round;stroke-linejoin:miter;stroke-dasharray:none;stroke-opacity:1;paint-order:normal"
       x="202.42311"
       y="130.04359"
       id="text5"
       inkscape:label="Awrded to "><tspan
         sodipodi:role="line"
         id="tspan5"
         style="font-style:normal;font-variant:normal;font-weight:normal;font-stretch:normal;font-size:15.875px;font-family:'Eras Demi ITC';-inkscape-font-specification:'Eras Demi ITC';text-align:center;text-anchor:middle;stroke-width:0.264583"
         x="204.27519"
         y="130.04359">This Certificate is awarded to</tspan></text><text
       xml:space="preserve"
       style="font-style:normal;font-variant:normal;font-weight:normal;font-stretch:normal;font-size:15.875px;font-family:'Gill Sans MT';-inkscape-font-specification:'Gill Sans MT';text-align:center;letter-spacing:3.70417px;writing-mode:lr-tb;direction:ltr;text-anchor:middle;fill:#272729;fill-opacity:1;stroke:none;stroke-width:0.264583;stroke-linecap:round;stroke-linejoin:miter;stroke-dasharray:none;stroke-opacity:1;paint-order:normal"
       x="204.67146"
       y="200.57378"
       id="text6"
       inkscape:label="Comp Name"><tspan
         sodipodi:role="line"
         id="tspan6"
         style="font-style:normal;font-variant:normal;font-weight:normal;font-stretch:normal;font-size:15.875px;font-family:'Eras Demi ITC';-inkscape-font-specification:'Eras Demi ITC';stroke-width:0.264583"
         x="204.67146"
         y="200.57378">For coming in [POS] Place in the</tspan><tspan
         sodipodi:role="line"
         style="font-style:normal;font-variant:normal;font-weight:normal;font-stretch:normal;font-size:15.875px;font-family:'Eras Demi ITC';-inkscape-font-specification:'Eras Demi ITC';stroke-width:0.264583"
         x="206.52354"
         y="220.52888"
         id="tspan7">[Pod Name] KPI Competition</tspan></text><text
       xml:space="preserve"
       style="font-style:normal;font-variant:normal;font-weight:normal;font-stretch:normal;font-size:19.7556px;font-family:'Freestyle Script';-inkscape-font-specification:'Freestyle Script';text-align:center;letter-spacing:1.32292px;writing-mode:lr-tb;direction:ltr;text-anchor:middle;fill:#272729;fill-opacity:1;stroke:none;stroke-width:0.264583;stroke-linecap:round;stroke-linejoin:miter;stroke-dasharray:none;stroke-opacity:1;paint-order:normal"
       x="52.686455"
       y="255.62564"
       id="text8"
       transform="rotate(-7.5339732)"
       inkscape:label="Team Leader"><tspan
         sodipodi:role="line"
         id="tspan8"
         style="font-style:normal;font-variant:normal;font-weight:normal;font-stretch:normal;font-family:'Freestyle Script';-inkscape-font-specification:'Freestyle Script';letter-spacing:1.32292px;stroke-width:0.264583"
         x="53.347916"
         y="255.62564">[Team Manager]</tspan></text><text
       xml:space="preserve"
       style="font-style:normal;font-variant:normal;font-weight:normal;font-stretch:normal;font-size:16.9333px;font-family:'Freestyle Script';-inkscape-font-specification:'Freestyle Script';text-align:center;letter-spacing:0.264583px;writing-mode:lr-tb;direction:ltr;text-anchor:middle;fill:#272729;fill-opacity:1;stroke:none;stroke-width:0.264583;stroke-linecap:round;stroke-linejoin:miter;stroke-dasharray:none;stroke-opacity:1;paint-order:normal"
       x="380.2973"
       y="254.39928"
       id="text9"
       inkscape:label="Date"><tspan
         sodipodi:role="line"
         id="tspan9"
         style="text-align:end;letter-spacing:0.264583px;text-anchor:end;stroke-width:0.264583"
         x="380.56189"
         y="254.39928">Date</tspan></text></g><g
     inkscape:groupmode="layer"
     id="layer2"
     inkscape:label="1st"><text
       xml:space="preserve"
       style="font-style:normal;font-variant:normal;font-weight:normal;font-stretch:normal;font-size:73.4545px;font-family:Corbel;-inkscape-font-specification:Corbel;text-align:center;letter-spacing:0px;writing-mode:lr-tb;direction:ltr;text-anchor:middle;white-space:pre;inline-size:394.876;display:inline;fill:#625fc3;fill-opacity:1;stroke:none;stroke-width:4.23332;stroke-linecap:round;stroke-linejoin:miter;stroke-dasharray:none;stroke-opacity:1;paint-order:normal"
       x="171.02475"
       y="74.856102"
       id="text3-5-1"
       transform="matrix(1.2598511,0,0,0.9268551,203.7581,185.47925)"><tspan
         x="171.02475"
         y="74.856102"
         id="tspan17"><tspan
           style="font-family:'Eras Demi ITC';-inkscape-font-specification:'Eras Demi ITC'"
           id="tspan16">3</tspan></tspan></text><text
       xml:space="preserve"
       style="font-style:normal;font-variant:normal;font-weight:normal;font-stretch:normal;font-size:29.1001px;font-family:'Eras Demi ITC';-inkscape-font-specification:'Eras Demi ITC';text-align:center;letter-spacing:2.42501px;writing-mode:lr-tb;direction:ltr;text-anchor:middle;fill:#625fc3;fill-opacity:1;stroke:none;stroke-width:0.485;stroke-linecap:round;stroke-linejoin:miter;stroke-dasharray:none;stroke-opacity:1;paint-order:normal"
       x="461.34802"
       y="214.00156"
       id="text11"><tspan
         sodipodi:role="line"
         id="tspan11"
         style="fill:#625fc3;fill-opacity:1;stroke-width:0.485"
         x="462.56052"
         y="214.00156">rd</tspan></text></g><style
     type="text/css"
     id="style1">
	.st0{fill:#FFC54D;}
	.st1{fill:#EDB24A;}
	.st2{fill:#5195FF;}
	.st3{fill:#F46262;}
</style></svg>
