<?xml version="1.0" encoding="UTF-8" standalone="no"?>
<!-- Created with Inkscape (http://www.inkscape.org/) -->

<svg
   width="1920"
   height="1080"
   viewBox="0 0 507.99998 285.75"
   version="1.1"
   id="svg1"
   xml:space="preserve"
   inkscape:version="1.4 (86a8ad7, 2024-10-11)"
   sodipodi:docname="1st.svg"
   xmlns:inkscape="http://www.inkscape.org/namespaces/inkscape"
   xmlns:sodipodi="http://sodipodi.sourceforge.net/DTD/sodipodi-0.dtd"
   xmlns="http://www.w3.org/2000/svg"
   xmlns:svg="http://www.w3.org/2000/svg"><sodipodi:namedview
     id="namedview1"
     pagecolor="#505050"
     bordercolor="#eeeeee"
     borderopacity="1"
     inkscape:showpageshadow="0"
     inkscape:pageopacity="0"
     inkscape:pagecheckerboard="0"
     inkscape:deskcolor="#505050"
     inkscape:document-units="mm"
     showgrid="true"
     inkscape:zoom="0.65833333"
     inkscape:cx="960"
     inkscape:cy="540"
     inkscape:window-width="1920"
     inkscape:window-height="1009"
     inkscape:window-x="-8"
     inkscape:window-y="1072"
     inkscape:window-maximized="1"
     inkscape:current-layer="layer1"
     showguides="true"><inkscape:grid
       id="grid1"
       units="mm"
       originx="0"
       originy="0"
       spacingx="0.99999996"
       spacingy="1"
       empcolor="#0099e5"
       empopacity="0.30196078"
       color="#0099e5"
       opacity="0.14902"
       empspacing="5"
       enabled="true"
       visible="true" /><sodipodi:guide
       position="204.53391,209.42031"
       orientation="1,0"
       id="guide1"
       inkscape:locked="false" /></sodipodi:namedview><defs
     id="defs1"><rect
       x="109.73978"
       y="111.07807"
       width="1287.4349"
       height="192.71375"
       id="rect2" /></defs><rect
     style="fill:#f8f8f8;fill-opacity:1;stroke:none;stroke-width:0.264583;stroke-linecap:round;stroke-linejoin:miter;stroke-dasharray:none;stroke-opacity:1;paint-order:normal"
     id="rect11"
     width="508.8262"
     height="286.10406"
     x="0"
     y="-0.35408923"
     inkscape:label="Background" /><g
     inkscape:label="Layer 1"
     inkscape:groupmode="layer"
     id="layer1"><rect
       style="fill:none;stroke:#9f8f5e;stroke-width:12.9514;stroke-linecap:round;stroke-linejoin:miter;stroke-dasharray:none;stroke-opacity:1;paint-order:normal"
       id="rect1"
       width="474.40329"
       height="251.6812"
       x="16.857349"
       y="16.14917"
       inkscape:label="Boarder" /><g
       id="g4"
       transform="matrix(2.7446589,0,0,2.7446589,274.9592,-118.88924)"
       style="stroke:#000000;stroke-opacity:1;stroke-width:0.28919805;stroke-dasharray:none">

<circle
   class="st0"
   cx="60"
   cy="83.699997"
   r="23.299999"
   id="circle1"
   style="fill:#82744d;fill-opacity:1;stroke:#000000;stroke-opacity:1;stroke-width:0.28919805;stroke-dasharray:none" />

<circle
   class="st1"
   cx="60"
   cy="83.699997"
   r="18.700001"
   id="circle2"
   style="fill:#9f8f5e;fill-opacity:1;stroke:#000000;stroke-opacity:1;stroke-width:0.09639935;stroke-dasharray:none" />

<path
   class="st0"
   d="m 60,54.4 c -2.2,0 -4,1.8 -4,4 0,2.2 1.8,4 4,4 2.2,0 4,-1.8 4,-4 0,-2.2 -1.8,-4 -4,-4 z m 0,6.7 c -1.5,0 -2.6,-1.2 -2.6,-2.6 0,-1.4 1.2,-2.6 2.6,-2.6 1.4,0 2.6,1.2 2.6,2.6 0,1.4 -1.1,2.6 -2.6,2.6 z"
   id="path2-0"
   style="stroke:#000000;stroke-opacity:1;stroke-width:0.09639935;stroke-dasharray:none;fill:#ffd000;fill-opacity:1" />

<path
   class="st2"
   d="m 82.2,15.7 v 31.2 c 0,0.9 -0.6,1.8 -1.6,2.3 l -11.9,5.6 -7,3.2 c -1,0.5 -2.3,0.5 -3.3,0 L 51.5,54.7 39.6,49.1 C 38.6,48.6 38,47.7 38,46.8 V 15.7 C 38,14.2 39.5,13 41.3,13 H 79 c 1.7,0 3.2,1.2 3.2,2.7 z"
   id="path3-9"
   style="fill:#00b945;fill-opacity:1;stroke:#000000;stroke-opacity:1;stroke-width:0.28919805;stroke-dasharray:none" />

<path
   class="st3"
   d="M 68.6,13 V 54.8 L 61.7,58 c -1,0.5 -2.3,0.5 -3.3,0 L 51.5,54.7 V 13 Z"
   id="path4-4"
   style="fill:#9f8f5e;fill-opacity:1;stroke:#000000;stroke-opacity:1;stroke-width:0.09639935;stroke-dasharray:none" />

</g><g
       id="g1"
       transform="matrix(0.09253096,0,0,0.09253096,405.61878,75.447662)"
       style="stroke:#272729;stroke-width:2.8594;stroke-dasharray:none;stroke-opacity:1"><path
         d="m 0,0 c 39.08413,-0.13735319 78.168228,-0.24306813 117.25255,-0.30639198 4.61496,-0.007504 9.22991,-0.0152701 13.84486,-0.0231979 1.37812,-0.002361 1.37812,-0.002361 2.78409,-0.004769 14.87347,-0.0261031 29.7468,-0.073408 44.62019,-0.12855766 15.26311,-0.0561224 30.52615,-0.0894387 45.78936,-0.10161419 9.41721,-0.00823 18.83402,-0.034217 28.2511,-0.0829678 6.45892,-0.0317323 12.91764,-0.0412981 19.37663,-0.0335095 3.72585,0.003841 7.45102,-0.002018 11.17674,-0.0342246 4.04356,-0.0346978 8.08565,-0.0226762 12.12932,-0.006294 1.75829,-0.0262156 1.75829,-0.0262156 3.55211,-0.0529608 C 306.34352,-0.69162022 311.36373,0.80808128 317,6 c 5.22388,6.508589 4.46928,14.012987 4.25,22 -0.0181,1.25168 -0.0361,2.503359 -0.0547,3.792969 C 321.14845,34.862782 321.08284,37.930982 321,41 c 0.78649,-0.01571 1.57298,-0.03142 2.3833,-0.04761 3.58049,-0.06255 7.16087,-0.101449 10.7417,-0.139893 1.2375,-0.02514 2.475,-0.05027 3.75,-0.07617 1.79824,-0.0145 1.79824,-0.0145 3.63281,-0.0293 1.09973,-0.01571 2.19947,-0.03142 3.33252,-0.04761 C 351.04794,41.328533 354.96441,44.419061 359,49 c 3.10857,4.551835 4.12212,8.188143 4.13422,13.652507 0.004,0.935964 0.009,1.871928 0.0135,2.836254 -2.8e-4,1.537476 -2.8e-4,1.537476 -5.6e-4,3.106011 0.004,1.09146 0.007,2.18292 0.0111,3.307454 0.0111,3.67021 0.0149,7.340392 0.0187,11.010616 0.006,2.626349 0.0129,5.252696 0.0199,7.879043 0.0197,7.890172 0.0298,15.780345 0.0387,23.670535 0.004,3.71714 0.01,7.43428 0.015,11.15142 0.017,12.35898 0.0315,24.71797 0.0387,37.07696 0.002,3.20617 0.004,6.41235 0.006,9.61853 4.8e-4,0.79686 9.6e-4,1.59372 0.001,2.41473 0.008,12.90736 0.0336,25.81463 0.0661,38.72196 0.0331,13.25634 0.0511,26.51264 0.0543,39.76903 0.002,7.4411 0.0109,14.88207 0.0365,22.32313 0.0217,6.33734 0.0297,12.6745 0.02,19.01186 -0.005,3.2316 -4.9e-4,6.46277 0.0168,9.69433 0.0177,3.50894 0.0106,7.017 -0.003,10.52594 0.011,1.01383 0.0219,2.02766 0.0332,3.07221 -0.0648,7.16321 -1.27164,13.60011 -6.24174,19.04135 -5.0943,4.78444 -10.35565,6.38338 -17.33394,6.31144 -1.10859,-0.006 -2.21719,-0.0129 -3.35937,-0.0195 -1.14211,-0.0168 -2.28422,-0.0335 -3.46094,-0.0508 -1.16531,-0.009 -2.33063,-0.0181 -3.53125,-0.0273 -2.8648,-0.0235 -5.72917,-0.0563 -8.59375,-0.0977 0.021,0.74572 0.0419,1.49145 0.0635,2.25977 0.0837,3.41327 0.13535,6.82632 0.18652,10.24023 0.0335,1.17305 0.067,2.34609 0.10156,3.55469 0.0858,7.63117 -0.26298,13.67339 -5.7998,19.45849 -4.45998,3.91407 -7.93267,5.73773 -13.83848,5.73292 -1.61605,0.006 -1.61605,0.006 -3.26475,0.0121 -1.18287,-0.006 -2.36574,-0.0116 -3.58446,-0.0177 -1.8856,0.003 -1.8856,0.003 -3.80929,0.005 -3.49129,0.004 -6.98246,-0.004 -10.47374,-0.0136 -3.76411,-0.009 -7.52821,-0.006 -11.29233,-0.004 -6.52228,10e-4 -13.04451,-0.005 -19.56678,-0.0165 -9.43013,-0.0163 -18.86024,-0.0215 -28.29038,-0.024 -15.2993,-0.004 -30.59857,-0.0177 -45.89786,-0.0366 -14.86295,-0.0184 -29.7259,-0.0325 -44.58887,-0.041 -1.37393,-7.8e-4 -1.37393,-7.8e-4 -2.77562,-0.002 -4.59503,-0.003 -9.19006,-0.005 -13.78508,-0.008 C 76.256062,384.07991 38.128033,384.04468 0,384 c 1.5911146,-4.25365 3.5096851,-7.05546 6.5,-10.5 3.968478,-4.64234 7.770231,-9.37413 11.475586,-14.23169 0.420557,-0.55132 0.841113,-1.10263 1.274414,-1.67065 0.657422,-0.86214 0.657422,-0.86214 1.328125,-1.7417 2.704217,-3.52979 5.439681,-7.03532 8.171875,-10.54346 0.590471,-0.75845 1.180942,-1.5169 1.789307,-2.29834 1.210937,-1.5554 2.421957,-3.11074 3.633056,-4.66602 1.817503,-2.33512 3.633395,-4.67149 5.448731,-7.0083 5.712752,-7.35287 11.435875,-14.6969 17.196045,-22.01269 C 60.5631,304.56565 64.283292,299.78436 68,295 72.587332,289.09492 77.190572,283.20307 81.816406,277.32812 85.562557,272.56625 89.283042,267.78468 93,263 c 4.587332,-5.90508 9.19057,-11.79693 13.81641,-17.67188 4.3483,-5.52728 8.66352,-11.08013 12.97461,-16.63647 2.76205,-3.55725 5.53148,-7.10754 8.33398,-10.63306 11.16297,-12.80541 11.16297,-12.80541 15.20312,-28.60937 -0.99384,-7.41837 -6.48883,-13.04649 -11.18774,-18.52368 -3.50461,-4.09561 -6.75149,-8.33999 -9.95288,-12.67554 C 118.0914,152.71653 113.87354,147.31683 109.5,142 104.66515,136.12034 100.04807,130.11771 95.519531,124 91.968527,119.22805 88.277582,114.59411 84.5,110 80.193666,104.76284 76.034137,99.449612 72,94 67.402815,87.791595 62.618977,81.769165 57.721436,75.795654 52.675566,69.633032 47.823951,63.336882 43,57 33.117294,44.108084 23.15459,31.277981 13.125,18.5 12.683174,17.936438 12.241348,17.372876 11.786133,16.792236 8.3694947,12.444314 4.8853105,8.1537626 1.3632812,3.890625 0,2 0,2 0,0 Z"
         fill="#42b654"
         transform="translate(201)"
         id="path1"
         style="stroke:#272729;stroke-width:2.8594;stroke-dasharray:none;stroke-opacity:1" /><path
         d="m 0,0 c 39.08413,-0.13735319 78.168228,-0.24306813 117.25255,-0.30639198 4.61496,-0.007504 9.22991,-0.0152701 13.84486,-0.0231979 1.37812,-0.002361 1.37812,-0.002361 2.78409,-0.004769 14.87347,-0.0261031 29.7468,-0.073408 44.62019,-0.12855766 15.26311,-0.0561224 30.52615,-0.0894387 45.78936,-0.10161419 9.41721,-0.00823 18.83402,-0.034217 28.2511,-0.0829678 6.45892,-0.0317323 12.91764,-0.0412981 19.37663,-0.0335095 3.72585,0.003841 7.45102,-0.002018 11.17674,-0.0342246 4.04356,-0.0346978 8.08565,-0.0226762 12.12932,-0.006294 1.75829,-0.0262156 1.75829,-0.0262156 3.55211,-0.0529608 C 306.34701,-0.69158195 311.3578,0.81235279 317,6 c 5.34052,6.596352 4.4641,14.397291 4.25,22.5 -0.0181,1.299375 -0.0361,2.59875 -0.0547,3.9375 -0.0469,3.188272 -0.1125,6.374993 -0.19531,9.5625 -1.0046,0.0015 -2.0092,0.0029 -3.04424,0.0044 -24.43694,0.03659 -48.87374,0.09602 -73.31057,0.179459 -11.81744,0.03982 -23.63482,0.0722 -35.45232,0.08709 -10.29937,0.013 -20.59859,0.03993 -30.89788,0.08362 -5.45411,0.02265 -10.90804,0.0383 -16.36221,0.03727 -5.13332,-7.45e-4 -10.26624,0.01712 -15.39945,0.04928 -1.88415,0.0085 -3.76835,0.01023 -5.65252,0.0046 -2.57326,-0.0066 -5.14523,0.01125 -7.71836,0.03522 -0.74515,-0.0078 -1.4903,-0.01552 -2.25803,-0.02352 C 125.80562,42.541523 122.94435,43.82123 119,47 c -3.82181,4.14029 -5.72828,7.645125 -6.375,13.25 1.01921,10.192076 7.64961,17.289307 13.90039,24.937012 2.29857,2.826018 4.54192,5.694521 6.78711,8.562988 0.44545,0.566785 0.8909,1.133569 1.34985,1.717529 4.40318,5.603271 8.77361,11.231941 13.14551,16.859621 3.55053,4.56836 7.11283,9.12701 10.69214,13.67285 4.7943,6.0889 9.55283,12.2052 14.3064,18.32593 3.13044,4.02865 6.26991,8.04962 9.43017,12.05493 1.7726,2.24813 3.5381,4.50177 5.30249,6.75635 1.05213,1.34153 2.10717,2.68077 3.16406,4.01855 1.79471,2.27508 3.57785,4.55884 5.35938,6.84424 0.84123,1.05973 0.84123,1.05973 1.69946,2.14087 4.4528,5.74716 6.9053,11.07466 6.65991,18.46069 -1.58134,8.99024 -9.72536,16.721 -15.33984,23.60156 -2.77853,3.40622 -5.47835,6.86484 -8.14453,10.35938 -3.36469,4.40008 -6.75931,8.7742 -10.1875,13.125 -4.27108,5.42125 -8.51637,10.86196 -12.75,16.3125 -4.1521,5.34491 -8.3131,10.6823 -12.5,16 -5.97828,7.59529 -11.91436,15.22317 -17.83838,22.86084 -1.56451,2.01414 -3.13393,4.02435 -4.70459,6.03369 -0.9025,1.16004 -1.80485,2.32019 -2.70703,3.48047 -1.16789,1.4966 -1.16789,1.4966 -2.35937,3.02344 C 113.30079,315.7142 113.11443,321.27891 114,329 c 1.93723,5.509 4.90559,8.29195 9.99721,11.13421 3.33616,1.4422 6.68053,1.42226 10.24753,1.38477 0.80227,0.007 1.60454,0.015 2.43113,0.0227 2.67333,0.0202 5.34581,0.0122 8.0192,0.004 1.9222,0.009 3.84439,0.0192 5.76657,0.0313 5.20815,0.0279 10.41607,0.0313 15.62429,0.0303 5.44664,0.003 10.89316,0.0288 16.33974,0.052 10.30936,0.0406 20.61865,0.0609 30.92807,0.074 11.73881,0.0159 23.47751,0.0543 35.21626,0.0946 24.1433,0.0824 48.28659,0.13649 72.43,0.17195 0.11696,4.3331 0.18751,8.6658 0.25,13 0.0335,1.22074 0.067,2.44148 0.10156,3.69922 0.0839,7.76206 -0.16086,13.92781 -5.7998,19.81201 -4.45716,3.91719 -7.93347,5.73968 -13.83848,5.73487 -1.61605,0.006 -1.61605,0.006 -3.26475,0.0121 -1.18287,-0.006 -2.36574,-0.0116 -3.58446,-0.0177 -1.8856,0.003 -1.8856,0.003 -3.80929,0.005 -3.49129,0.004 -6.98246,-0.004 -10.47374,-0.0136 -3.76411,-0.009 -7.52821,-0.006 -11.29233,-0.004 -6.52228,10e-4 -13.04451,-0.005 -19.56678,-0.0165 -9.43013,-0.0163 -18.86024,-0.0215 -28.29038,-0.024 -15.2993,-0.004 -30.59857,-0.0177 -45.89786,-0.0366 -14.86295,-0.0184 -29.7259,-0.0325 -44.58887,-0.041 -1.37393,-7.8e-4 -1.37393,-7.8e-4 -2.77562,-0.002 -4.59503,-0.003 -9.19006,-0.005 -13.78508,-0.008 C 76.256062,384.07991 38.128033,384.04468 0,384 c 1.5911146,-4.25365 3.5096851,-7.05546 6.5,-10.5 3.968478,-4.64234 7.770231,-9.37413 11.475586,-14.23169 0.420557,-0.55132 0.841113,-1.10263 1.274414,-1.67065 0.657422,-0.86214 0.657422,-0.86214 1.328125,-1.7417 2.704217,-3.52979 5.439681,-7.03532 8.171875,-10.54346 0.590471,-0.75845 1.180942,-1.5169 1.789307,-2.29834 1.210937,-1.5554 2.421957,-3.11074 3.633056,-4.66602 1.817503,-2.33512 3.633395,-4.67149 5.448731,-7.0083 5.712752,-7.35287 11.435875,-14.6969 17.196045,-22.01269 C 60.5631,304.56565 64.283292,299.78436 68,295 72.587332,289.09492 77.190572,283.20307 81.816406,277.32812 85.562557,272.56625 89.283042,267.78468 93,263 c 4.587332,-5.90508 9.19057,-11.79693 13.81641,-17.67188 4.3483,-5.52728 8.66352,-11.08013 12.97461,-16.63647 2.76205,-3.55725 5.53148,-7.10754 8.33398,-10.63306 11.16297,-12.80541 11.16297,-12.80541 15.20312,-28.60937 -0.99384,-7.41837 -6.48883,-13.04649 -11.18774,-18.52368 -3.50461,-4.09561 -6.75149,-8.33999 -9.95288,-12.67554 C 118.0914,152.71653 113.87354,147.31683 109.5,142 104.66515,136.12034 100.04807,130.11771 95.519531,124 91.968527,119.22805 88.277582,114.59411 84.5,110 80.193666,104.76284 76.034137,99.449612 72,94 67.402815,87.791595 62.618977,81.769165 57.721436,75.795654 52.675566,69.633032 47.823951,63.336882 43,57 33.117294,44.108084 23.15459,31.277981 13.125,18.5 12.683174,17.936438 12.241348,17.372876 11.786133,16.792236 8.3694947,12.444314 4.8853105,8.1537626 1.3632812,3.890625 0,2 0,2 0,0 Z"
         fill="#252728"
         transform="translate(201)"
         id="path2"
         style="stroke:#272729;stroke-width:2.8594;stroke-dasharray:none;stroke-opacity:1" /><path
         d="m 0,0 c 8.2051089,6.5671204 14.283527,16.144287 20.486816,24.529541 3.627299,4.888739 7.391733,9.64243 11.251465,14.349365 5.602803,6.833252 11.02298,13.781931 16.375,20.8125 1.581911,2.063591 3.165275,4.126069 4.75,6.1875 0.602556,0.784314 0.602556,0.784314 1.217285,1.584473 3.072852,3.994589 6.167786,7.971658 9.267334,11.945557 2.381209,3.054829 4.75718,6.113689 7.130616,9.17456 1.039102,1.339847 2.079339,2.678816 3.121093,4.016602 1.282281,1.650274 2.555774,3.306879 3.826172,4.966308 0.697383,0.904922 1.394766,1.809844 2.113281,2.742184 3.291533,4.98222 3.158349,10.57692 2.574219,16.38282 -2.711034,7.74581 -8.405454,13.84138 -13.512207,20.15332 -2.357793,2.92654 -4.671284,5.88743 -6.987793,8.84668 -0.920328,1.17206 -1.840901,2.34394 -2.761719,3.51562 -0.454233,0.57815 -0.908466,1.15629 -1.376464,1.75195 -1.334667,1.69789 -2.670358,3.39496 -4.006348,5.0918 -7.490394,9.51695 -14.925825,19.07621 -22.355469,28.64063 -4.114372,5.29656 -8.230899,10.59141 -12.352539,15.88232 -1.601772,2.05895 -3.199069,4.1213 -4.795898,6.18408 -0.971187,1.24883 -1.942533,2.49754 -2.914063,3.7461 -0.428855,0.55655 -0.85771,1.1131 -1.2995603,1.68652 -4.9441406,6.33428 -9.67350991,12.03543 -17.8879395,13.37598 -6.2381742,0.50945 -11.2689232,-1.38636 -16.5625002,-4.5625 -5.207457,-5.50503 -6.784654,-11.32184 -6.695434,-18.73755 -0.0062,-0.80974 -0.01248,-1.61947 -0.01891,-2.45374 -0.01586,-2.69305 -0.0034,-5.38519 0.0093,-8.07825 -0.0054,-1.93891 -0.01255,-3.87783 -0.02124,-5.81674 -0.0182,-5.25206 -0.01118,-10.50381 0.0015,-15.75588 0.01015,-5.5029 7.3e-4,-11.00577 -0.0055,-16.50867 -0.0073,-9.24021 0.0023,-18.48028 0.02136,-27.72046 0.02177,-10.67467 0.01472,-21.34903 -0.0073,-32.023693 -0.01817,-9.17391 -0.02071,-18.347728 -0.01025,-27.52165 0.0062,-5.475304 0.0071,-10.950465 -0.0061,-16.42576 -0.01158,-5.148182 -0.0035,-10.295971 0.01958,-15.444111 0.0053,-1.886557 0.0038,-3.773147 -0.0051,-5.65969 -0.01098,-2.580863 0.0028,-5.160477 0.02272,-7.741261 -0.0089,-0.741648 -0.01785,-1.483296 -0.02704,-2.247418 0.08914,-5.987911 1.83011,-11.2406176 5.946807,-15.7106384 C -18.361901,-3.0982595 -8.4574612,-4.8643113 0,0 Z"
         fill="#42b654"
         transform="translate(209.88672,80.308594)"
         id="path3"
         style="stroke:#272729;stroke-width:2.8594;stroke-dasharray:none;stroke-opacity:1" /><path
         d="m 0,0 c 5.94,0 11.88,0 18,0 0.750234,1.5120703 1.500469,3.0241406 2.273437,4.5820312 5.096923,10.2483808 10.229035,20.4692658 15.594483,30.5798338 4.923219,9.29474 9.719748,18.654645 14.527832,28.009278 0.739123,1.437771 1.478299,2.875515 2.217529,4.313232 0.550266,1.070206 0.550266,1.070206 1.111649,2.162033 2.425645,4.713603 4.866638,9.418964 7.318039,14.119217 6.453198,12.383804 12.787167,24.802395 18.722168,37.445805 0.415239,0.88413 0.830478,1.76827 1.2583,2.6792 0.360132,0.77375 0.720264,1.54751 1.091309,2.34472 0.758276,1.74266 0.758276,1.74266 1.885254,2.76465 0.244197,-0.54898 0.488394,-1.09796 0.73999,-1.66357 10.400469,-23.27215 21.73097,-46.130963 33.7251,-68.622807 C 121.75376,52.529972 124.88346,46.271896 128,40 c 3.73838,-7.519264 7.52321,-15.008097 11.4375,-22.4375 0.38865,-0.737988 0.7773,-1.475977 1.17773,-2.236328 C 143.34198,10.178794 146.15925,5.0853009 149,0 c 5.61,0 11.22,0 17,0 2.12022,19.183447 4.00792,38.377745 5.72733,57.601145 0.26017,2.905989 0.52179,5.811849 0.78333,8.717716 0.61646,6.849811 1.23036,13.699848 1.84261,20.550035 0.62835,7.029656 1.26151,14.058864 1.89687,21.087894 0.55071,6.09467 1.09831,12.1896 1.64348,18.28477 0.32343,3.61565 0.64803,7.23118 0.97572,10.84644 0.36342,4.01088 0.72035,8.02231 1.0767,12.03383 0.16125,1.76497 0.16125,1.76497 0.32575,3.56561 0.0966,1.0994 0.19327,2.19881 0.29283,3.33153 0.0846,0.9435 0.16919,1.88699 0.25635,2.85908 C 181.05233,162.91252 181,166.95891 181,171 c -8.58,0 -17.16,0 -26,0 -0.34781,-3.92459 -0.34781,-3.92459 -0.70264,-7.92847 -0.77369,-8.72909 -1.54814,-17.45811 -2.32295,-26.1871 -0.46888,-5.28265 -0.93751,-10.56533 -1.40556,-15.84805 -0.45328,-5.11591 -0.90724,-10.23177 -1.36164,-15.34758 -0.17163,-1.93359 -0.34303,-3.8672 -0.51418,-5.800836 C 147.51551,86.586679 146.28113,73.29171 145,60 c -0.44662,0.944704 -0.44662,0.944704 -0.90226,1.908493 -0.588,1.24352 -0.588,1.24352 -1.18787,2.512161 -0.38798,0.820584 -0.77597,1.641168 -1.1757,2.486618 -10.15861,21.456527 -20.66846,42.809608 -31.8787,63.737748 -5.28878,9.93918 -10.230925,20.06083 -15.232667,30.14648 -0.363596,0.73143 -0.727193,1.46285 -1.101807,2.21643 -0.692101,1.39245 -1.382512,2.78573 -2.071045,4.17994 C 89.112499,171.8875 89.112499,171.8875 88,173 c -1.852875,0.0723 -3.708339,0.0838 -5.5625,0.0625 -1.011914,-0.009 -2.023828,-0.018 -3.066406,-0.0273 C 78.197402,173.01775 78.197402,173.01775 77,173 c -0.380117,-0.74477 -0.380117,-0.74477 -0.767914,-1.50459 -2.692634,-5.27516 -5.386965,-10.54945 -8.082184,-15.82329 -0.999113,-1.95552 -1.997826,-3.91124 -2.996093,-5.86719 C 59.714085,139.14735 54.240135,128.51087 48.651459,117.93056 44.536779,110.13695 40.486273,102.31098 36.45752,94.472656 35.238593,92.102823 34.015781,89.735018 32.792969,87.367187 28.312365,78.666481 24.018917,69.925435 20,61 c -1.31385,12.034125 -2.481712,24.071037 -3.477266,36.135611 -0.22114,2.679676 -0.444891,5.359129 -0.669203,8.038539 -0.474282,5.67093 -0.945276,11.34213 -1.416031,17.01335 -0.549972,6.62088 -1.101337,13.24165 -1.655226,19.86221 -0.219063,2.62542 -0.436105,5.251 -0.653017,7.87661 -0.134872,1.61595 -0.269832,3.23191 -0.404892,4.84785 -0.05872,0.7175 -0.117435,1.435 -0.177932,2.17424 C 11.149999,161.65942 10.587475,166.3002 10,171 c -7.92,0 -15.84,0 -24,0 0,-13.50006 0,-13.50006 0.486801,-19.03238 0.107939,-1.25575 0.215878,-2.51151 0.327088,-3.80531 0.121101,-1.3479 0.242305,-2.69578 0.363601,-4.04366 0.1269,-1.45347 0.253341,-2.90697 0.379364,-4.36052 0.340426,-3.91141 0.687231,-7.82224 1.035293,-11.73298 0.364906,-4.11225 0.723934,-8.22503 1.08365,-12.33774 0.6044219,-6.90132 1.2125832,-13.80229 1.8234706,-20.703035 0.8593253,-9.707202 1.7120436,-19.414975 2.5633553,-29.122882 1.1431894,-13.032376 2.2883193,-26.064586 3.4410506,-39.096122 0.1239429,-1.401942 0.2476974,-2.803901 0.3712407,-4.205879 C -1.4617736,15.03461 -0.76934086,7.5148171 0,0 Z"
         fill="#252628"
         transform="translate(384,471)"
         id="path4"
         style="stroke:#272729;stroke-width:2.8594;stroke-dasharray:none;stroke-opacity:1" /><path
         d="m 0,0 c -0.64424333,3.2503173 -1.2906726,6.5001961 -1.9375,9.75 -0.1824023,0.920391 -0.3648047,1.840781 -0.5527344,2.789063 -0.1772461,0.889453 -0.3544922,1.778906 -0.5371094,2.695312 -0.1623413,0.816943 -0.3246826,1.633887 -0.4919433,2.475586 C -3.962692,19.822271 -4.4607998,21.910337 -5,24 -8.5667542,22.618656 -12.040615,21.075986 -15.519043,19.486816 -26.075788,14.711686 -36.358882,11.601803 -48,11 c -0.787617,-0.04125 -1.575234,-0.0825 -2.386719,-0.125 -19.826855,-0.510837 -37.944645,6.327445 -52.359371,19.839844 -12.06036,12.227569 -17.06763,27.846 -17.50391,44.785156 0.22138,17.452344 5.5113,33.77651 17.91797,46.39453 14.992384,13.53584 34.096326,19.02999 54.05078,18.39063 C -36.97391,139.66872 -28.328348,137.16417 -18,132 c 0.33,-11.22 0.66,-22.44 1,-34 -14.19,0 -28.38,0 -43,0 2,-9 2,-9 7,-22 20.13,0 40.26,0 61,0 0.4411969,17.438419 0.4411969,17.438419 0.5371094,24.89648 0.065661,5.08162 0.1431492,10.16104 0.2927246,15.24097 0.1199041,4.09807 0.1853632,8.1938 0.2138157,12.29349 0.020261,1.56039 0.059836,3.12065 0.1193809,4.68004 C 9.338579,137.90064 9.33568,142.34805 8,147 c -3.2562242,3.39116 -6.6999366,5.19375 -11,7 -1.2269133,0.62953 -2.4535403,1.25961 -3.6796875,1.89062 C -14.33584,159.14777 -21.816496,161.48736 -30,163 c -0.902666,0.17128 -1.805332,0.34257 -2.735352,0.51904 -29.283649,4.31415 -58.372056,-0.90892 -82.467778,-18.34326 C -125.30757,137.3152 -132.9583,128.3061 -139,117 c -0.44086,-0.80437 -0.88172,-1.60875 -1.33594,-2.4375 C -150.75756,93.845587 -151.11017,67.771976 -144,46 c 7.40782,-21.687034 23.10312,-38.1152355 43,-49 31.993558,-15.664378 69.933501,-13.524733 101,3 z"
         fill="#252628"
         transform="translate(339,481)"
         id="path5"
         style="stroke:#272729;stroke-width:2.8594;stroke-dasharray:none;stroke-opacity:1" /><path
         d="m 0,0 c -1.1632449,7.8416388 -2.7547013,15.395922 -5,23 -2.6641029,-1.063671 -5.325262,-2.133004 -7.980469,-3.21875 -13.153651,-5.255052 -25.867859,-8.594788 -39.503906,-3.042969 -5.218519,2.617363 -8.505109,5.534062 -11.453125,10.574219 -1.721547,5.974779 -2.058011,11.097424 0.5,16.875 6.007709,10.497899 18.041751,14.533056 28.761963,18.676514 C -17.435965,69.534019 -0.6514657,78.165216 7.2890625,95.875 12.660284,110.09521 12.897114,126.02371 6.640625,140.04687 -0.43816316,153.54766 -10.590352,161.2325 -25,166 c -19.978199,5.95598 -44.285632,3.19553 -62.898437,-5.85156 -4.954577,-2.70752 -4.954577,-2.70752 -5.99292,-5.82227 -0.235657,-1.10795 -0.471314,-2.2159 -0.714112,-3.35742 -0.261035,-1.2027 -0.52207,-2.40539 -0.791015,-3.64453 -0.261036,-1.26199 -0.522071,-2.52399 -0.791016,-3.82422 -0.272637,-1.26199 -0.545273,-2.52398 -0.826172,-3.82422 C -99,130.38634 -99,130.38634 -99,128 c 3.986194,0.65952 6.901893,2.65722 10.3125,4.75 14.884712,8.7965 33.244556,13.79993 50.519531,10.75 7.673927,-2.07467 14.048923,-5.00411 18.105469,-12.0625 3.735644,-7.30667 4.008447,-14.12629 1.625,-21.9375 C -22.342553,99.607199 -30.747758,95.184221 -40,91 -43.388073,89.666445 -46.817365,88.46314 -50.25,87.25 -66.685031,81.191699 -81.174538,72.333518 -89,56 -93.710872,44.373924 -93.362634,31.679068 -89.261719,19.9375 -87.353236,15.49422 -85.031044,11.757309 -82,8 c 0.455039,-0.6019922 0.910078,-1.2039844 1.378906,-1.8242188 3.763864,-4.3731579 8.368482,-6.89092405 13.433594,-9.4882812 0.65146,-0.3378149 1.30292,-0.6756299 1.974121,-1.0236816 C -45.587331,-13.883401 -18.420875,-10.804552 0,0 Z"
         fill="#252628"
         transform="translate(105,477)"
         id="path6"
         style="stroke:#272729;stroke-width:2.8594;stroke-dasharray:none;stroke-opacity:1" /><path
         d="m 0,0 c 3.63,0 7.26,0 11,0 4.173274,8.8364081 8.049383,17.757413 11.775055,26.788849 1.62862,3.946676 3.266849,7.889364 4.904632,11.832245 0.347408,0.836717 0.694815,1.673434 1.05275,2.535507 4.150987,9.986503 8.366405,19.94572 12.580063,29.905899 7.116344,16.825953 14.191491,33.66861 21.229248,50.52759 3.533042,8.45805 7.086539,16.90626 10.696533,25.33178 0.332986,0.77854 0.665972,1.55707 1.009049,2.3592 1.557109,3.64004 3.119185,7.27777 4.691391,10.91131 0.544086,1.26911 1.087964,2.53831 1.631591,3.80762 0.471959,1.09312 0.943917,2.18625 1.430176,3.3125 C 83,170 83,170 83,173 c -8.91,0 -17.82,0 -27,0 -2.58594,-5.17188 -5.025597,-10.23912 -7.214844,-15.56641 -0.291781,-0.70302 -0.583562,-1.40604 -0.884186,-2.13037 -0.948808,-2.28748 -1.893661,-4.57658 -2.83847,-6.86572 -1.009253,-2.43689 -2.019476,-4.87337 -3.029831,-7.3098 -0.684651,-1.65104 -1.368987,-3.30222 -2.053009,-4.95352 -2.103832,-5.07574 -4.223778,-10.14429 -6.362473,-15.20543 C 27.161845,105.68484 20.878773,90.341961 14.755615,74.921631 11.576056,66.916421 8.3474848,58.937053 5,51 c -0.3403125,0.891548 -0.680625,1.783096 -1.03125,2.70166 -8.1832849,21.399632 -16.768745,42.592393 -25.735016,63.67503 -4.001349,9.41423 -7.949218,18.85081 -11.896454,28.28783 -1.190785,2.8466 -2.382586,5.69276 -3.574585,8.53885 -0.730842,1.74599 -1.461638,3.492 -2.192382,5.23804 -0.498883,1.19109 -0.498883,1.19109 -1.007844,2.40625 -0.309203,0.73935 -0.618407,1.47871 -0.936981,2.24047 -0.267067,0.63818 -0.534135,1.27635 -0.809295,1.93386 -0.956751,2.31865 -1.884638,4.64912 -2.816193,6.97801 -8.91,0 -17.82,0 -27,0 1.852206,-5.55662 3.66091,-10.80866 5.90625,-16.17188 0.27661,-0.66296 0.553219,-1.32593 0.838211,-2.00898 0.915289,-2.19108 1.835337,-4.38012 2.755539,-6.56914 0.661908,-1.58121 1.323605,-3.16251 1.985107,-4.7439 6.047992,-14.44454 12.148204,-28.8672 18.246582,-43.29052 5.512348,-13.039765 10.994708,-26.09178 16.455811,-39.15308 5.588594,-13.36475 11.184504,-26.726344 16.8033752,-40.0784 0.7092032,-1.685344 1.4181708,-3.370788 2.1268921,-5.056335 0.9717559,-2.310856 1.9444148,-4.621329 2.9173889,-6.9316712 C -3.6772317,8.3118735 -3.3896198,7.6276532 -3.0932922,6.922699 -1.114885,2.2297701 -1.114885,2.2297701 0,0 Z"
         fill="#252628"
         transform="translate(653,469)"
         id="path7"
         style="stroke:#272729;stroke-width:2.8594;stroke-dasharray:none;stroke-opacity:1" /><path
         d="m 0,0 c 8.91,0 17.82,0 27,0 0,56.43 0,112.86 0,171 -8.91,0 -17.82,0 -27,0 C 0,114.57 0,58.14 0,0 Z"
         fill="#252628"
         transform="translate(140,471)"
         id="path8"
         style="stroke:#272729;stroke-width:2.8594;stroke-dasharray:none;stroke-opacity:1" /><path
         d="M 0,0 C 12,0 12,0 15.445313,3.0078125 16.379406,4.3527278 17.271517,5.7275394 18.125,7.125 c 0.731019,1.0807581 0.731019,1.0807581 1.476807,2.1833496 1.003256,1.4857444 1.990726,2.9822694 2.962158,4.4890134 2.176655,3.338623 4.531307,6.541798 6.873535,9.765137 1.521898,2.145078 3.042756,4.290895 4.5625,6.4375 1.65,2.31 3.3,4.62 5,7 0.33,-12.21 0.66,-24.42 1,-37 3.96,0 7.92,0 12,0 0,19.47 0,38.94 0,59 C 40,59 40,59 37.097656,56.570312 36.377672,55.447486 35.700889,54.296143 35.0625,53.125 34.260436,51.843407 33.455599,50.563545 32.648437,49.285156 32.02147,48.250925 32.02147,48.250925 31.381836,47.195801 28.852369,43.176362 25.996568,39.389047 23.1875,35.5625 22.117156,34.085601 21.048096,32.607771 19.980469,31.128906 19.525671,30.500569 19.070874,29.872231 18.602295,29.224854 16.392464,26.156411 14.197871,23.07702 12,20 11.67,32.87 11.34,45.74 11,59 7.37,59 3.74,59 0,59 0,39.53 0,20.06 0,0 Z"
         fill="#42b654"
         transform="translate(276,686)"
         id="path9"
         style="stroke:#272729;stroke-width:2.8594;stroke-dasharray:none;stroke-opacity:1" /><path
         d="m 0,0 c 12,0 12,0 16,3.9375 1.363874,2.0003483 2.692736,4.0247058 4,6.0625 1.464542,2.092797 2.951174,4.168966 4.4375,6.246338 1.493526,2.094437 2.967681,4.201139 4.4375,6.312256 C 32.525519,27.746893 36.268713,32.86948 40,38 40.33,25.46 40.66,12.92 41,0 c 3.63,0 7.26,0 11,0 0,19.47 0,38.94 0,59 C 41,59 41,59 38.597656,57.410156 38.091055,56.63543 37.584453,55.860703 37.0625,55.0625 36.434727,54.155 35.806953,53.2475 35.160156,52.3125 34.090879,50.672812 34.090879,50.672812 33,49 32.046357,47.641607 31.086291,46.287708 30.121094,44.9375 28.105268,42.116983 26.106106,39.286408 24.125,36.441406 20.474481,31.253107 16.731287,26.13052 13,21 12.67,33.54 12.34,46.08 12,59 8.04,59 4.08,59 0,59 0,39.53 0,20.06 0,0 Z"
         fill="#42b654"
         transform="translate(186,686)"
         id="path10"
         style="stroke:#272729;stroke-width:2.8594;stroke-dasharray:none;stroke-opacity:1" /><path
         d="m 0,0 c 7.7562905,4.5084365 11.188149,10.417962 14.355469,18.5625 1.795568,9.467542 1.20112,18.654702 -3.753906,27.074219 C 6.0104497,52.08132 -0.0254718,56.772151 -7.9570312,58.1875 -19.461939,58.954494 -28.018027,58.328555 -37.269531,50.9375 -42.902626,45.719594 -45.64985,39.467891 -46.195312,31.867187 -46.414982,20.606225 -44.804097,12.316912 -36.894531,3.8789063 -27.177049,-4.6042987 -11.40068,-5.4998258 0,0 Z m -30.332031,13.6875 c -0.53625,0.825 -1.0725,1.65 -1.625,2.5 -0.587813,0.897187 -0.587813,0.897187 -1.1875,1.8125 -2.443403,6.578392 -2.057145,12.647698 0.1875,19.1875 3.012081,5.701439 6.868784,8.956261 13,11 5.689857,0.563567 10.1690838,0.327964 14.9999998,-3 C 0.2087024,40.170421 3.2952548,35.375873 3.4804688,28 3.3564064,21.879589 1.5929645,17.161192 -1.9570312,12.1875 -6.485418,7.9081746 -11.501347,6.8275318 -17.542969,6.90625 c -5.285698,0.6158095 -9.170287,2.9720128 -12.789062,6.78125 z"
         fill="#42b654"
         transform="translate(135.95703,687.8125)"
         id="path11"
         style="stroke:#272729;stroke-width:2.8594;stroke-dasharray:none;stroke-opacity:1" /><path
         d="m 0,0 c 4.90875,-0.0825 9.8175,-0.165 14.875,-0.25 1.527378,-0.036416 3.054756,-0.072832 4.628418,-0.11035156 9.135409,-0.0739709 16.409415,0.84083102 24.082519,6.14941406 C 50.583968,12.970448 53.176206,19.452275 53.5,29.5 c -0.265516,8.496516 -1.916457,15.047541 -7.75,21.375 -6.758367,6.162468 -13.701738,8.260798 -22.703125,8.222656 -1.208174,-0.0025 -2.416348,-0.005 -3.661133,-0.0076 C 17.855947,59.080984 16.326152,59.07188 14.75,59.0625 9.8825,59.041875 5.015,59.02125 0,59 0,39.53 0,20.06 0,0 Z m 11,10 c 0,12.87 0,25.74 0,39 13.601405,0.908902 13.601405,0.908902 24,-4 5.902291,-6.212938 6.451833,-11.240992 6.3125,-19.644531 C 40.775655,19.591093 38.06058,16.847891 33.9375,13.1875 26.366585,7.5495849 22.6884,10 11,10 Z"
         fill="#42b654"
         transform="translate(684,686)"
         id="path12"
         style="stroke:#272729;stroke-width:2.8594;stroke-dasharray:none;stroke-opacity:1" /><path
         d="m 0,0 c 13.86,0 27.72,0 42,0 0,3.3 0,6.6 0,10 -9.9,0 -19.8,0 -30,0 0,4.62 0,9.24 0,14 9.57,0 19.14,0 29,0 0,3.3 0,6.6 0,10 -9.57,0 -19.14,0 -29,0 0,4.95 0,9.9 0,15 9.9,0 19.8,0 30,0 0,3.3 0,6.6 0,10 C 28.14,59 14.28,59 0,59 0,39.53 0,20.06 0,0 Z"
         fill="#42b654"
         transform="translate(606,686)"
         id="path13"
         style="stroke:#272729;stroke-width:2.8594;stroke-dasharray:none;stroke-opacity:1" /><path
         d="m 0,0 c 13.53,0 27.06,0 41,0 0,3.3 0,6.6 0,10 -9.9,0 -19.8,0 -30,0 0,4.62 0,9.24 0,14 9.57,0 19.14,0 29,0 0,3.3 0,6.6 0,10 -9.57,0 -19.14,0 -29,0 0,4.95 0,9.9 0,15 9.9,0 19.8,0 30,0 0,3.3 0,6.6 0,10 C 27.47,59 13.94,59 0,59 0,39.53 0,20.06 0,0 Z"
         fill="#42b654"
         transform="translate(366,686)"
         id="path14"
         style="stroke:#272729;stroke-width:2.8594;stroke-dasharray:none;stroke-opacity:1" /><path
         d="M 0,0 C 0.70745361,0.00418945 1.4149072,0.00837891 2.1437988,0.01269531 9.8843779,0.18044504 15.394604,1.9004594 21.125,7.3125 c 4,4.540541 4,4.540541 4,7 -6.5,4 -6.5,4 -11,4 -1.688169,-1.644883 -3.353533,-3.313375 -5,-5 -4.1062905,-2.330597 -8.37347959,-2.690144 -13,-2 -5.2604958,1.766228 -9.034383,4.209388 -12,9 -2.822249,6.208947 -2.93624,12.785757 -0.875,19.25 2.115192,5.008616 5.52777,7.452847 10.25,10.0625 6.57136366,1.721071 11.0763542,0.914983 16.960938,-2.144531 1.96797,-1.231265 1.96797,-1.231265 3.664062,-4.167969 4.389081,0.510358 7.337081,1.522143 11,4 -1.478206,3.506809 -3.42579,5.598581 -6.25,8.125 -0.747656,0.683203 -1.495313,1.366406 -2.265625,2.070312 C 9.4491613,62.7091 0.54962997,61.976055 -7.875,61.3125 -15.492333,59.513215 -22.332242,54.407413 -26.449219,47.777344 -30.728351,39.452041 -32.320078,31.737004 -30.226562,22.429687 -27.317285,13.50293 -22.153836,6.8922814 -13.875,2.3125 -9.2231161,0.44229412 -4.9673429,-0.0399597 0,0 Z"
         fill="#42b654"
         transform="translate(470.875,684.6875)"
         id="path15"
         style="stroke:#272729;stroke-width:2.8594;stroke-dasharray:none;stroke-opacity:1" /><path
         d="m 0,0 c 4.3171962,3.0495185 8.2063746,6.2558424 9.9023438,11.34375 -6.1818182,4 -6.1818182,4 -9.68750005,4 -2.77661895,-1.2007 -4.21738765,-2.839415 -6.31249995,-5 -4.3812928,-2.5035958 -9.0857368,-2.7944726 -13.9999998,-2 -5.622738,2.30651 -9.085607,5.637517 -12,11 -1.993749,5.981247 -1.999086,12.67434 0.6875,18.4375 2.697402,4.660883 6.423489,7.425821 11.3125,9.5625 6.330596,1.023367 11.7867584,-0.261968 16.9999997,-4 0.6600001,-0.99 1.3200001,-1.98 2.0000001,-3 4.8736284,0.453361 7.3904238,1.708916 11,5 -4.984888,6.242474 -9.28475988,10.428253 -17,13 C -17.397011,59.056872 -26.860419,59.255302 -35.339844,52.578125 -41.935557,46.441454 -45.580902,39.813118 -46.300781,30.800781 -46.470002,21.253924 -45.188261,14.346319 -38.847656,6.96875 -29.114818,-3.1122552 -12.880664,-6.9224296 0,0 Z"
         fill="#42b654"
         transform="translate(49.097656,687.65625)"
         id="path16"
         style="stroke:#272729;stroke-width:2.8594;stroke-dasharray:none;stroke-opacity:1" /><path
         d="m 0,0 c 15.51,0 31.02,0 47,0 0,3.3 0,6.6 0,10 -5.61,0 -11.22,0 -17,0 0,16.17 0,32.34 0,49 -3.96,0 -7.92,0 -12,0 C 18,42.83 18,26.66 18,10 12.06,10 6.12,10 0,10 0,6.7 0,3.4 0,0 Z"
         fill="#42b654"
         transform="translate(525,686)"
         id="path17"
         style="stroke:#272729;stroke-width:2.8594;stroke-dasharray:none;stroke-opacity:1" /></g><path
       style="font-size:65.8074px;font-family:'Century Gothic';-inkscape-font-specification:'Century Gothic';text-align:center;letter-spacing:0px;text-anchor:middle;white-space:pre;inline-size:394.876;fill:#9f8f5e;stroke-width:4.23332;stroke-linecap:round"
       d="m 82.652604,36.361342 -3.727373,2.859794 q -3.084722,-4.016565 -7.422612,-6.073047 -4.305758,-2.088614 -9.479094,-2.088614 -5.655324,0 -10.475202,2.731265 -4.819878,2.699132 -7.486877,7.294082 -2.634867,4.562818 -2.634867,10.282407 0,8.643648 5.912384,14.427502 5.944516,5.783854 14.973755,5.783854 9.928949,0 16.612513,-7.77607 l 3.727373,2.827662 q -3.534577,4.498553 -8.836443,6.972757 -5.269734,2.442071 -11.792636,2.442071 -12.403153,0 -19.568705,-8.258058 -6.008782,-6.972757 -6.008782,-16.837441 0,-10.378804 7.26195,-17.447959 7.294082,-7.101287 18.251272,-7.101287 6.6193,0 11.953298,2.634867 5.333999,2.602734 8.740046,7.326215 z m 38.173436,26.89492 3.79164,1.992216 q -1.86369,3.663108 -4.30576,5.912384 -2.44207,2.249277 -5.49466,3.43818 -3.05259,1.156771 -6.90849,1.156771 -8.547254,0 -13.367133,-5.591059 -4.819878,-5.623191 -4.819878,-12.692346 0,-6.651432 4.08083,-11.8569 5.173336,-6.6193 13.849121,-6.6193 8.93284,0 14.26684,6.779962 3.79163,4.787746 3.8559,11.953298 H 94.348842 q 0.12853,6.105179 3.888035,10.025347 3.759503,3.888035 9.286303,3.888035 2.667,0 5.17333,-0.931843 2.53847,-0.931843 4.30576,-2.474204 1.76729,-1.542361 3.82377,-4.980541 z m 0,-9.414829 q -0.89971,-3.598842 -2.63487,-5.751721 -1.70302,-2.152879 -4.53068,-3.470313 -2.82766,-1.317433 -5.94452,-1.317433 -5.1412,0 -8.836442,3.30965 -2.699132,2.409939 -4.08083,7.229817 z m 11.63197,-13.945514 h 4.59495 v 5.109071 q 2.05649,-3.020457 4.33789,-4.498553 2.28141,-1.510229 4.75562,-1.510229 1.86368,0 3.98443,1.188904 l -2.34567,3.791637 q -1.41383,-0.610518 -2.37781,-0.610518 -2.24928,0 -4.33789,1.863686 -2.08861,1.831554 -3.18112,5.719589 -0.83545,2.988325 -0.83545,12.081828 v 11.824768 h -4.59495 z M 157.87484,26.91438 h 4.53068 v 12.981539 h 7.13342 v 3.855902 h -7.13342 v 31.104281 h -4.53068 V 43.751821 h -6.13731 v -3.855902 h 6.13731 z m 19.9543,-1.413831 q 1.54236,0 2.63486,1.092506 1.09251,1.092506 1.09251,2.634867 0,1.510228 -1.09251,2.602734 -1.0925,1.092506 -2.63486,1.092506 -1.51023,0 -2.60274,-1.092506 -1.0925,-1.092506 -1.0925,-2.602734 0,-1.542361 1.0925,-2.634867 1.09251,-1.092506 2.60274,-1.092506 z m -2.24928,14.39537 h 4.53068 v 34.960183 h -4.53068 z M 203.82434,26.40026 v 4.402155 q -2.4742,-1.060373 -4.24149,-1.060373 -1.31743,0 -2.18501,0.546253 -0.86758,0.51412 -1.09251,1.221036 -0.22492,0.674783 -0.22492,3.663107 v 4.723481 h 7.29408 v 3.855902 h -7.32622 v 31.104281 h -4.49855 V 43.751821 h -4.59495 v -3.855902 h 4.59495 V 34.43339 q 0,-3.759505 0.67478,-5.366131 0.70692,-1.606626 2.34568,-2.570602 1.67089,-0.996108 4.01656,-0.996108 2.18501,0 5.2376,0.899711 z m 7.84034,-0.899711 q 1.54236,0 2.63486,1.092506 1.09251,1.092506 1.09251,2.634867 0,1.510228 -1.09251,2.602734 -1.0925,1.092506 -2.63486,1.092506 -1.51023,0 -2.60274,-1.092506 -1.0925,-1.092506 -1.0925,-2.602734 0,-1.542361 1.0925,-2.634867 1.09251,-1.092506 2.60274,-1.092506 z m -2.24928,14.39537 h 4.53069 v 34.960183 h -4.53069 z m 47.78106,7.26195 -3.56671,2.217144 q -4.62709,-6.137312 -12.62808,-6.137312 -6.39438,0 -10.63587,4.112963 -4.20936,4.112963 -4.20936,9.993214 0,3.82377 1.92795,7.197685 1.96009,3.373914 5.334,5.237601 3.40605,1.863686 7.61541,1.863686 7.7118,0 12.59595,-6.137312 l 3.56671,2.345674 q -2.50634,3.759505 -6.74783,5.848119 -4.20936,2.056482 -9.60763,2.056482 -8.29019,0 -13.75272,-5.269734 -5.46252,-5.269733 -5.46252,-12.820876 0,-5.076938 2.53847,-9.414829 2.5706,-4.370023 7.03702,-6.812094 4.46642,-2.442072 9.99321,-2.442072 3.47031,0 6.68357,1.060373 3.24538,1.060374 5.49466,2.763397 2.24927,1.703024 3.82377,4.337891 z m 43.4753,-7.26195 v 34.960183 h -4.43429 v -6.008781 q -2.82766,3.438179 -6.36224,5.173335 -3.50244,1.735157 -7.67967,1.735157 -7.42261,0 -12.69235,-5.366131 -5.2376,-5.398264 -5.2376,-13.110069 0,-7.551143 5.30187,-12.917274 5.30187,-5.366131 12.75661,-5.366131 4.30576,0 7.77607,1.831554 3.50245,1.831554 6.13731,5.494661 v -6.426504 z m -17.99421,3.43818 q -3.75951,0 -6.94063,1.863686 -3.18112,1.831554 -5.07694,5.173336 -1.86368,3.341782 -1.86368,7.069154 0,3.69524 1.89582,7.069155 1.89582,3.373915 5.07694,5.269734 3.21325,1.863686 6.87636,1.863686 3.69524,0 7.00488,-1.863686 3.30965,-1.863687 5.07694,-5.044806 1.79942,-3.18112 1.79942,-7.165552 0,-6.073047 -4.01656,-10.153877 -3.98443,-4.08083 -9.83255,-4.08083 z M 314.71366,26.91438 h 4.53068 v 12.981539 h 7.13342 v 3.855902 h -7.13342 v 31.104281 h -4.53068 V 43.751821 h -6.13731 v -3.855902 h 6.13731 z m 47.81321,36.341882 3.79164,1.992216 q -1.86369,3.663108 -4.30576,5.912384 -2.44207,2.249277 -5.49466,3.43818 -3.05259,1.156771 -6.9085,1.156771 -8.54725,0 -13.36712,-5.591059 -4.81988,-5.623191 -4.81988,-12.692346 0,-6.651432 4.08083,-11.8569 5.17333,-6.6193 13.84911,-6.6193 8.93285,0 14.26684,6.779962 3.79164,4.787746 3.85591,11.953298 h -31.42561 q 0.12853,6.105179 3.88804,10.025347 3.7595,3.888035 9.28629,3.888035 2.667,0 5.17334,-0.931843 2.53847,-0.931843 4.30576,-2.474204 1.76729,-1.542361 3.82377,-4.980541 z m 0,-9.414829 q -0.89971,-3.598842 -2.63487,-5.751721 -1.70302,-2.152879 -4.53068,-3.470313 -2.82767,-1.317433 -5.94452,-1.317433 -5.1412,0 -8.83644,3.30965 -2.69914,2.409939 -4.08083,7.229817 z"
       id="text3"
       inkscape:label="Certificate"
       transform="matrix(1,0,0,0.73568619,2.8327133,14.656281)"
       aria-label="Certificate" /><text
       xml:space="preserve"
       style="font-style:normal;font-variant:normal;font-weight:normal;font-stretch:normal;font-size:41.12964096px;font-family:'Trebuchet MS';-inkscape-font-specification:'Trebuchet MS, Normal';font-variant-ligatures:normal;font-variant-caps:normal;font-variant-numeric:normal;font-variant-east-asian:normal;text-align:center;letter-spacing:0px;writing-mode:lr-tb;direction:ltr;text-anchor:middle;white-space:pre;inline-size:394.876;display:inline;fill:#9f8f5e;fill-opacity:1;stroke:none;stroke-width:4.23332;stroke-linecap:round;stroke-linejoin:miter;stroke-dasharray:none;stroke-opacity:1;paint-order:normal"
       x="171.02475"
       y="74.856102"
       id="text3-5"
       transform="matrix(1,0,0,0.73568619,33.418451,114.96048)"
       inkscape:label="Name"><tspan
         x="171.02475"
         y="74.856102"
         id="tspan3">{{Name}}</tspan></text><path
       d="m 53.562136,116.14681 v 1.50034 q -1.477946,1.34359 -2.373671,1.79145 -0.895724,0.44786 -2.575208,0.35829 -2.911105,3.44854 -5.128023,3.44854 -1.254014,0 -2.284098,-0.82855 -1.030083,-0.82854 -1.65709,-2.2617 -0.604614,-1.43316 -0.604614,-3.20222 0,-1.43315 0.94051,-3.17982 0.962904,-1.74666 2.463243,-3.247 1.522732,-1.52273 3.247002,-2.44085 1.72427,-0.94051 3.202215,-0.94051 1.052477,0 1.657091,0.3359 0.604614,0.3135 0.604614,0.89572 0,0.44786 -0.515042,1.03009 0.850938,0.17914 1.164442,0.60461 0.313504,0.40308 0.313504,1.50034 0,1.07487 -0.515042,2.70956 -0.492648,1.6347 -1.36598,3.06786 l 0.403076,0.40308 h 0.335897 q 0.380683,0 0.738973,-0.17915 0.380683,-0.20154 0.671793,-0.40307 0.291111,-0.22393 1.276408,-0.96291 z m -4.612982,-5.88939 q -1.858629,1.11966 -3.179822,2.03778 -1.321194,0.89572 -2.239312,1.83623 -0.918118,0.91812 -1.231621,1.85863 -0.559828,2.50803 -0.559828,2.70957 0,1.47794 2.060167,1.47794 0.962903,0 3.224608,-1.65709 -0.380683,-1.05247 -0.380683,-2.01538 0,-1.41076 0.582221,-2.86632 0.582221,-1.47794 1.72427,-3.38136 z m 20.745331,5.93418 v 1.54512 q -1.343587,1.34359 -2.037774,1.9482 -0.694186,0.60462 -1.903415,1.23163 0,2.03777 -0.201538,3.47093 -0.201538,1.43316 -0.895724,3.00068 -0.694187,1.58991 -2.149739,3.47093 -1.43316,1.85863 -2.821533,2.84392 -1.388373,1.00769 -2.172132,1.00769 -0.873331,0 -1.612304,-1.43315 -0.738973,-1.43316 -0.738973,-3.56051 0,-2.03777 0.694187,-4.29948 0.694186,-2.2617 2.149739,-5.8446 -1.097263,-1.43316 -1.097263,-2.84393 0,-1.14205 0.582221,-1.74666 0.582221,-0.60461 1.657091,-1.09726 0.783759,-1.23162 1.477945,-2.08256 0.71658,-0.87333 1.925808,-2.30649 2.328884,-5.73264 5.46392,-11.19656 0.873332,-1.522732 1.254015,-2.037773 0.380682,-0.537435 0.806152,-0.537435 0.380683,0 0.671793,0.559828 0.291111,0.559828 0.291111,1.455552 0,1.097263 -0.246325,2.01538 -0.223931,0.918118 -0.671793,1.858628 -0.425469,0.91812 -1.209228,2.21692 -0.761366,1.2988 -0.940511,1.6123 -1.119656,1.9706 -2.530422,4.36666 -1.410766,2.39606 -2.239312,3.78444 -0.806152,1.38837 -1.164442,2.08256 1.209229,1.05247 1.903415,1.81384 0.71658,0.76137 1.231622,1.81384 0.761365,-0.29111 1.388373,-0.69418 0.627007,-0.40308 1.477945,-1.09727 0.850939,-0.71658 1.657091,-1.32119 z m -6.695542,6.00135 -0.04479,-0.47025 q -0.627007,0.0672 -1.00769,0.0448 -0.380683,-0.0448 -0.895725,-0.20153 -0.492648,-0.15676 -0.783759,-0.29111 -0.268717,-0.13436 -0.604614,-0.26872 -1.701876,4.16512 -1.701876,6.91947 0,1.36598 0.403076,2.32888 0.425469,0.96291 0.985297,0.96291 0.582221,0 1.455552,-1.03008 0.895725,-1.03009 1.545125,-3.04547 0.6494,-2.01538 0.6494,-4.94888 z m 47.626377,-8.17348 q -2.68718,0.0896 -3.94119,0.0896 -1.92581,0 -5.32956,-0.0896 -0.71658,0.78376 -1.746667,1.85863 -1.030083,1.05247 -1.948201,1.97059 -0.918118,0.89572 -1.589911,1.54512 -0.649401,0.62701 -1.07487,1.05248 -2.485636,2.41846 -3.247001,3.15743 -0.738973,0.73897 -1.567518,1.32119 -0.828546,0.60462 -1.522732,0.60462 -0.783759,0 -0.783759,-0.71658 0,-0.78376 1.119655,-2.41846 1.119656,-1.6347 2.530422,-2.88871 1.410767,-1.25401 2.306491,-1.25401 0.246325,0 0.694187,0.22393 l 4.254692,-4.54581 q -0.806152,-0.11196 -2.104953,-0.13435 -1.298801,-0.0448 -1.746663,-0.20154 -0.447862,-0.15675 -0.447862,-0.76137 0,-0.9629 2.060166,-3.02307 1.119656,-1.14205 2.104953,-1.45555 0.985297,-0.31351 3.762041,-0.3359 -1.6347,0.22393 -2.32888,0.53744 -0.671795,0.29111 -0.738974,0.89572 0.6494,0 1.186834,0 0.55983,0 1.43316,0 0.89572,-0.0224 1.32119,-0.0448 3.67247,-3.5829 6.67315,-6.22529 3.00068,-2.66478 6.31486,-5.038452 3.33657,-2.396063 7.09862,-4.38905 0.73897,0.962904 0.73897,2.01538 0,0.873332 -0.58222,2.01538 -0.55983,1.142049 -2.41846,4.299482 -1.83623,3.13503 -3.73965,6.67314 0.62701,0 1.03009,0.0224 0.42547,0 0.89572,0.0224 1.27641,0 1.54513,0.0448 0.29111,0.0448 0.29111,0.44786 0,0.17914 -0.35829,0.6494 -0.3359,0.44786 -1.20923,1.52273 -0.87333,1.05248 -1.70188,2.14974 l -3.29179,0.26872 q -2.61999,4.92648 -2.61999,5.55349 0,0.91812 0.9629,0.91812 0.47026,0 3.89641,-1.9706 l -0.17915,1.18684 q -1.83624,1.38837 -2.86632,2.19452 -1.00769,0.78376 -1.76905,1.3212 -0.73898,0.51504 -1.36598,0.76136 -0.60462,0.26872 -1.23163,0.26872 -0.73897,0 -1.45555,-0.69419 -0.71658,-0.67179 -0.71658,-1.9258 0,-0.51504 0.38068,-1.45556 0.38069,-0.9629 0.80616,-1.83623 0.44786,-0.87333 2.21692,-4.18751 z m -4.2323,-5.08324 7.25537,-0.13436 q 1.2764,-2.17213 2.06016,-3.51572 0.80615,-1.34359 1.74667,-2.9111 0.9629,-1.58991 1.63469,-2.687177 0.69419,-1.097262 1.52273,-2.485636 -1.6123,1.007691 -3.29178,2.239312 -1.67949,1.231621 -3.78444,2.978281 -2.10495,1.72427 -3.73965,3.22461 -1.6347,1.47795 -3.40375,3.29179 z m 30.93419,7.30016 v 1.50033 q -2.39606,2.35128 -3.91879,3.65008 -1.50034,1.2988 -2.82153,2.01538 -1.2988,0.71658 -2.55282,0.71658 -1.23162,0 -2.2617,-0.9629 -1.03009,-0.9853 -1.61231,-2.55282 -0.58222,-1.58991 -0.58222,-3.35896 0,-1.52274 0.6718,-2.70957 0.67179,-1.18684 2.5976,-3.06786 2.28409,-2.23931 4.2323,-3.44854 1.97059,-1.23162 3.09025,-1.23162 0.80615,0 1.36598,0.55983 0.55982,0.55983 0.55982,1.41076 0,0.71658 -0.73897,2.03778 -0.73897,1.32119 -1.65709,2.30649 -0.91812,0.9629 -1.45555,0.9629 -0.58222,0 -0.58222,-0.627 0.0224,-0.17915 0.0224,-0.3359 0.0224,-0.15675 0.0224,-0.3135 0,-0.26872 -0.20153,-0.29112 -0.17915,-0.0448 -0.44787,0.15676 -2.23931,1.56751 -3.06785,2.21692 -0.82855,0.627 -1.3212,1.2764 -0.47025,0.6494 -0.47025,1.36598 0,1.3212 0.85094,2.14974 0.85093,0.82855 2.21691,0.82855 1.41077,0 3.38136,-1.07487 1.99299,-1.09727 4.68016,-3.17982 z m 20.36465,-0.0448 v 1.41077 q -1.9482,1.99298 -3.38136,3.26939 -1.41076,1.25401 -2.48563,1.90341 -1.05248,0.6494 -1.79145,0.6494 -1.74667,0 -1.74667,-2.06016 0,-1.65709 1.07487,-3.82922 1.09727,-2.19453 3.13504,-5.15042 -1.00769,0.55983 -1.90341,1.2988 -0.89573,0.71658 -1.58992,1.52273 -0.69418,0.78376 -1.16444,1.34359 -1.45555,1.6347 -2.79914,3.35897 -1.34358,1.70187 -1.81384,2.21691 -0.47025,0.51505 -0.89572,0.51505 -1.74667,0 -1.74667,-4.29948 0,-1.41077 0.42547,-3.11265 0.42547,-1.70187 2.2841,-4.50101 3.91879,-5.867 6.69554,-9.58425 2.79914,-3.739655 4.63538,-5.643069 1.83623,-1.925808 2.46324,-1.881022 0.78376,0.06718 1.25401,0.313504 0.49265,0.246324 0.49265,0.559828 0,0.559827 -0.78376,1.858628 -0.76136,1.276408 -2.64239,4.008371 -2.03777,2.88871 -2.88871,4.07554 -0.85094,1.16445 -2.55281,3.33658 -1.67949,2.14974 -3.09025,3.85161 -1.38837,1.67949 -3.17982,3.65008 v 2.68717 q 3.00067,-3.33657 5.1952,-5.46392 2.19452,-2.12734 3.71726,-3.20221 1.52273,-1.09726 2.23931,-1.09726 0.67179,0 1.25401,0.80615 0.58222,0.78376 0.58222,1.2988 0,0.22393 -0.22393,0.55983 -1.6123,1.92581 -2.57521,3.20221 -0.94051,1.25402 -1.45555,2.26171 -0.51504,0.98529 -0.51504,1.70187 0,1.05248 1.00769,1.05248 1.07487,0 4.76973,-2.88871 z m 12.88535,-10.00972 q -0.55982,0 -1.07487,-0.42547 -0.49264,-0.42547 -0.49264,-1.07487 0,-0.9853 0.94051,-2.19453 0.94051,-1.20923 1.9482,-1.20923 0.67179,0 1.11965,0.42547 0.44787,0.40308 0.44787,1.18684 0,0.9629 -0.91812,2.12734 -0.91812,1.16445 -1.9706,1.16445 z m 1.52274,10.00972 v 1.6347 q -2.17214,2.79914 -4.05316,4.23229 -1.88102,1.41077 -3.20221,1.41077 -1.83624,0 -2.73196,-1.92581 -0.89573,-1.9258 -0.89573,-4.2099 0,-0.87333 0.17915,-1.65709 0.17914,-0.80615 0.42547,-1.3212 0.24632,-0.51504 0.91811,-1.6123 3.17983,-4.94888 5.82221,-4.94888 1.36598,0 1.36598,1.05248 0,0.71658 -0.89572,2.23931 -0.87333,1.52273 -1.56752,2.17213 -1.9482,1.88102 -2.55281,2.62 -0.58223,0.73897 -0.58223,1.67948 0,0.80615 0.60462,1.34359 0.60461,0.53743 1.56752,0.53743 1.05247,0 2.30649,-0.76137 1.2764,-0.78375 3.29179,-2.48563 z m 7.08552,0.80615 v 0.55983 q 0,1.32119 0.6494,2.06017 0.6494,0.73897 1.70188,0.73897 1.09726,0 2.2617,-0.51504 1.18684,-0.51505 2.35128,-1.36598 1.16444,-0.85094 2.84392,-2.2841 v 1.36598 q -2.53042,3.04546 -4.74734,4.68016 -2.21691,1.6123 -4.50101,1.6123 -1.99299,0 -3.15743,-1.54512 -1.16444,-1.54513 -1.16444,-4.2323 0,-2.35128 1.09726,-4.25469 1.09726,-1.92581 3.5829,-4.05316 1.70187,-1.45555 3.38136,-2.19452 1.67948,-0.73897 3.00068,-0.73897 1.05247,0 1.65709,0.49265 0.627,0.47025 0.627,1.43315 0,1.41077 -1.05247,2.82154 -1.05248,1.38837 -3.22461,2.77674 -2.14974,1.36598 -5.30717,2.64239 z m 0.22393,-1.45555 q 2.01538,-0.78376 3.44854,-1.9482 1.43316,-1.16444 2.10495,-2.21692 0.69419,-1.07487 0.69419,-1.56752 0,-0.51504 -0.47026,-0.51504 -0.40307,0 -1.32119,0.51504 -0.89572,0.51504 -1.83623,1.34359 -0.91812,0.82854 -1.65709,1.9482 -0.73898,1.11965 -0.96291,2.44085 z m 15.61732,0.69419 -0.40308,1.88102 q -0.0896,0.35829 -0.0896,0.80615 0,1.20923 1.00769,1.20923 0.9629,0 4.68016,-3.76205 0.0224,-1.45555 1.07487,-3.35896 1.07487,-1.90342 2.35128,-3.33658 1.2988,-1.43316 1.9258,-1.43316 0.9853,0 0.9853,1.2988 0,0.78376 -0.38068,1.92581 -0.38069,1.11966 -1.11966,2.44085 -0.73897,1.2988 -1.81384,2.68717 0.55983,1.0077 1.14205,1.0077 0.49265,0 1.07487,-0.3359 0.60461,-0.35829 1.50034,-1.07487 v 1.50034 q -1.25402,0.98529 -1.99299,1.34358 -0.71658,0.35829 -1.85863,0.35829 -0.44786,0 -1.6123,-0.60461 -2.2841,2.41846 -3.71726,3.62768 -1.43316,1.18684 -2.32888,1.18684 -1.54513,0 -2.64239,-1.83624 -1.07487,-1.85862 -1.07487,-4.07554 0,-2.97829 3.35897,-7.14341 1.00769,-1.25401 1.6123,-1.70187 0.62701,-0.47026 1.41077,-0.47026 0.67179,0 1.2764,0.24633 0.60462,0.24632 0.60462,0.58222 0,1.11965 -1.50034,3.29178 -1.50034,2.14974 -3.47093,3.73966 z m 19.17781,0.76136 v 0.55983 q 0,1.32119 0.6494,2.06017 0.6494,0.73897 1.70188,0.73897 1.09726,0 2.2617,-0.51504 1.18684,-0.51505 2.35128,-1.36598 1.16444,-0.85094 2.84392,-2.2841 v 1.36598 q -2.53042,3.04546 -4.74734,4.68016 -2.21692,1.6123 -4.50101,1.6123 -1.99299,0 -3.15743,-1.54512 -1.16444,-1.54513 -1.16444,-4.2323 0,-2.35128 1.09726,-4.25469 1.09726,-1.92581 3.5829,-4.05316 1.70187,-1.45555 3.38136,-2.19452 1.67948,-0.73897 3.00067,-0.73897 1.05248,0 1.65709,0.49265 0.62701,0.47025 0.62701,1.43315 0,1.41077 -1.05247,2.82154 -1.05248,1.38837 -3.22461,2.77674 -2.14974,1.36598 -5.30717,2.64239 z m 0.22393,-1.45555 q 2.01538,-0.78376 3.44854,-1.9482 1.43316,-1.16444 2.10495,-2.21692 0.69419,-1.07487 0.69419,-1.56752 0,-0.51504 -0.47026,-0.51504 -0.40307,0 -1.32119,0.51504 -0.89573,0.51504 -1.83624,1.34359 -0.91811,0.82854 -1.65709,1.9482 -0.73897,1.11965 -0.9629,2.44085 z m 23.52207,3.71726 q 3.09025,-2.73196 5.30717,-4.74734 2.21692,-2.03778 3.47093,-3.20222 1.27641,-1.16444 2.23931,-1.97059 0.96291,-0.80616 1.23162,-0.80616 0.51504,-0.0224 0.9853,1.07487 0.47026,1.07487 0.47026,1.72427 0,0.42547 -1.43316,2.01538 -1.41077,1.56752 -2.12735,2.50803 -0.69419,0.94051 -0.69419,1.9706 0,0.60461 0.40308,0.98529 0.40308,0.35829 0.9629,0.35829 0.6494,0 1.54513,-0.67179 0.91812,-0.67179 2.86632,-2.39606 v 1.58991 q -1.9482,1.83623 -3.53812,3.17982 -1.58991,1.32119 -2.77674,1.99299 -1.16444,0.6494 -1.9482,0.6494 -0.69419,0 -1.16444,-0.51504 -0.47026,-0.53744 -0.47026,-1.3212 0,-0.76136 0.26872,-1.54512 0.26871,-0.78376 0.82854,-1.85863 0.55983,-1.07487 1.47795,-2.57521 0.91812,-1.52273 1.67948,-2.77675 -2.2841,1.85863 -4.05315,3.5829 -1.76906,1.72427 -2.88871,3.02307 -1.11966,1.27641 -1.76906,2.01538 -1.25401,1.38838 -2.32888,1.38838 -1.16445,0 -1.16445,-1.65709 0,-0.6718 0.87334,-2.39607 0.87333,-1.74666 2.48563,-4.43383 0.13436,-0.17915 0.13436,-0.55983 0,-0.44786 -0.44786,-0.44786 -0.49265,0 -1.43316,0.94051 -0.91812,0.91811 -3.5829,3.87401 -0.73897,0.82854 -1.67948,2.17213 -0.91812,1.32119 -1.3212,1.76905 -0.40307,0.44787 -0.80615,0.44787 -0.80615,0 -1.50034,-1.43316 -0.69418,-1.43316 -0.69418,-3.33658 0,-1.38837 0.44786,-2.39606 0.47025,-1.00769 1.43316,-2.50803 1.50034,-2.17213 2.44085,-3.09025 0.9629,-0.94051 2.01538,-0.94051 0.6494,0 1.09726,0.26872 0.44786,0.24632 0.44786,0.69418 0,0.47026 -0.82854,1.54513 -0.80616,1.07487 -2.06017,2.21692 -0.67179,0.6494 -1.27641,1.6123 -0.60461,0.94051 -0.60461,1.36598 0,0.60462 0.47025,0.60462 0.38069,0 1.92581,-1.56752 1.54513,-1.56752 3.38136,-3.40376 1.85863,-1.85862 3.42615,-3.06785 1.58991,-1.23162 2.68717,-1.23162 0.6718,0 1.09727,0.51504 0.44786,0.49265 0.44786,1.23162 0,0.49265 -0.6718,1.79145 -0.67179,1.27641 -1.97059,3.17982 -1.27641,1.88102 -3.31418,4.5682 z m 22.35764,-2.26171 v 0.55983 q 0,1.32119 0.6494,2.06017 0.6494,0.73897 1.70187,0.73897 1.09727,0 2.26171,-0.51504 1.18683,-0.51505 2.35127,-1.36598 1.16445,-0.85094 2.84393,-2.2841 v 1.36598 q -2.53042,3.04546 -4.74734,4.68016 -2.21692,1.6123 -4.50102,1.6123 -1.99298,0 -3.15743,-1.54512 -1.16444,-1.54513 -1.16444,-4.2323 0,-2.35128 1.09727,-4.25469 1.09726,-1.92581 3.58289,-4.05316 1.70188,-1.45555 3.38136,-2.19452 1.67949,-0.73897 3.00068,-0.73897 1.05248,0 1.65709,0.49265 0.62701,0.47025 0.62701,1.43315 0,1.41077 -1.05248,2.82154 -1.05247,1.38837 -3.22461,2.77674 -2.14973,1.36598 -5.30716,2.64239 z m 0.22393,-1.45555 q 2.01538,-0.78376 3.44854,-1.9482 1.43316,-1.16444 2.10495,-2.21692 0.69419,-1.07487 0.69419,-1.56752 0,-0.51504 -0.47026,-0.51504 -0.40308,0 -1.32119,0.51504 -0.89573,0.51504 -1.83624,1.34359 -0.91812,0.82854 -1.65709,1.9482 -0.73897,1.11965 -0.9629,2.44085 z m 28.38139,-3.40375 q -3.94119,4.38905 -3.94119,6.11332 0,0.9629 0.78376,0.9629 0.6494,0 1.67948,-0.67179 1.05248,-0.69419 3.2694,-2.44085 v 1.54512 q -3.17983,3.13504 -4.8817,4.52341 -1.70188,1.38837 -2.77675,1.38837 -1.83623,0 -1.83623,-2.41845 0,-0.71658 0.22393,-1.41077 0.22393,-0.69419 0.60461,-1.43316 0.40308,-0.76136 1.20923,-2.14974 0.80615,-1.41076 1.85863,-3.17982 -1.27641,0.6494 -3.20222,2.57521 -1.25401,1.20923 -2.12734,2.30649 -0.87333,1.07487 -1.88102,2.41846 -0.9853,1.32119 -1.45556,1.79144 -0.44786,0.44787 -0.91811,0.44787 -0.71658,0 -1.3212,-1.50034 -0.60461,-1.50034 -0.60461,-3.49333 0,-1.23162 0.26871,-1.92581 0.29112,-0.69418 1.11966,-1.97059 1.54513,-2.37367 2.66478,-3.47093 1.11966,-1.11966 2.14974,-1.11966 0.71658,0 1.14205,0.24633 0.44786,0.24632 0.44786,0.76136 0,0.22393 -0.13436,0.47026 -0.13436,0.24632 -0.3135,0.44786 -0.15675,0.20154 -0.69419,0.78376 -3.53811,3.91879 -3.53811,5.08324 0,0.6494 0.42547,0.6494 0.26872,0 1.03008,-0.85094 0.78376,-0.87333 1.99299,-2.26171 1.23162,-1.41076 2.88871,-2.93349 1.67949,-1.52274 3.80683,-2.9335 1.18684,-0.82855 1.9706,-0.82855 0.35829,0 0.69418,0.9853 0.35829,0.9853 0.35829,1.99299 0,0.49264 -0.9629,1.50034 z m 13.22123,-7.56888 h 0.9629 q 1.18684,-2.12734 2.14974,-3.00068 0.96291,-0.89572 2.19453,-0.89572 1.23162,0 1.23162,0.55983 0,0.26872 -0.9629,1.45555 -0.96291,1.18684 -1.45556,1.99299 0.76137,0.0896 1.34359,0.15675 0.60461,0.0672 0.94051,0.11197 -1.27641,2.37367 -3.20221,4.8593 -0.62701,-0.0448 -1.05248,-0.0672 -0.42547,-0.0448 -0.87333,-0.0672 -0.42547,-0.0448 -1.05248,-0.0896 -1.20923,1.9482 -2.03777,3.49333 -0.80615,1.52273 -1.25402,2.79914 -0.42547,1.2764 -0.42547,2.41845 0,1.54513 1.23163,1.54513 0.85093,0 2.21691,-0.89573 1.38838,-0.91812 3.69487,-2.79914 v 1.50034 q -6.04614,6.56118 -8.93486,6.56118 -1.00769,0 -1.63469,-0.78376 -0.60462,-0.78375 -0.60462,-2.01538 0,-0.82854 0.3359,-1.97059 0.35829,-1.14205 1.25401,-3.44854 -0.3135,0.26872 -0.60461,0.53744 -0.26872,0.24632 -0.51504,0.47025 -0.22393,0.20154 -0.49265,0.44786 -0.26872,0.22393 -0.53743,0.47026 v -1.54513 q 2.35127,-1.97059 5.68785,-6.91947 -0.3359,-0.0224 -0.62701,-0.0224 -0.29111,-0.0224 -0.69419,-0.0224 -1.32119,0 -1.97059,0.17914 -0.26872,0.0672 -0.51504,0.15675 -0.22393,0.0672 -0.31351,0.0672 -0.0896,0 -0.0896,-0.13436 0,-0.73897 0.91812,-2.21692 0.73897,-1.25401 1.38837,-1.85862 0.6718,-0.60462 1.61231,-0.80616 0.9629,-0.22393 2.68717,-0.22393 z"
       id="text4"
       style="font-style:italic;font-size:45.8611px;font-family:'Brush Script MT';-inkscape-font-specification:'Brush Script MT Italic';text-align:center;letter-spacing:3.70417px;text-anchor:middle;fill:#272729;stroke-width:0.224944;stroke-linecap:round"
       inkscape:label="of Achievement"
       transform="scale(1.1762151,0.85018464)"
       aria-label="of Achievement" /><path
       d="m 38.103119,119.74965 v -1.10846 h 6.255432 v 1.10846 H 41.81607 v 10.29394 h -1.16272 v -10.29394 z m 11.416877,-1.39526 h 1.085205 v 4.76715 q 0.658875,-0.86817 1.449524,-1.2945 0.79065,-0.43408 1.713074,-0.43408 0.945679,0 1.674316,0.48059 0.73639,0.48059 1.085206,1.2945 0.348815,0.80615 0.348815,2.53472 v 4.34082 h -1.085205 v -4.02301 q 0,-1.45727 -0.116272,-1.94561 -0.201538,-0.83716 -0.736389,-1.25574 -0.527099,-0.42633 -1.387512,-0.42633 -0.984436,0 -1.767334,0.65112 -0.775146,0.65112 -1.023193,1.61231 -0.15503,0.62011 -0.15503,2.29443 v 3.09283 h -1.085205 z m 13.765572,-0.21705 q 0.37207,0 0.63562,0.26355 0.26355,0.26355 0.26355,0.63562 0,0.36432 -0.26355,0.62787 -0.26355,0.26355 -0.63562,0.26355 -0.364319,0 -0.627869,-0.26355 -0.26355,-0.26355 -0.26355,-0.62787 0,-0.37207 0.26355,-0.63562 0.26355,-0.26355 0.627869,-0.26355 z M 62.742965,121.61 h 1.092957 v 8.43359 h -1.092957 z m 11.285103,0.92242 -0.697632,0.72089 q -0.868164,-0.84491 -1.69757,-0.84491 -0.5271,0 -0.906922,0.34882 -0.37207,0.34881 -0.37207,0.8139 0,0.41083 0.310058,0.7829 0.310059,0.37982 1.302247,0.89142 1.209228,0.62787 1.64331,1.20923 0.426331,0.58911 0.426331,1.3255 0,1.03869 -0.728638,1.75958 -0.728638,0.72089 -1.821594,0.72089 -0.728638,0 -1.395264,-0.31781 -0.658874,-0.31781 -1.092956,-0.87592 l 0.682128,-0.77515 q 0.829407,0.93793 1.759583,0.93793 0.651123,0 1.108459,-0.41858 0.457337,-0.41858 0.457337,-0.98443 0,-0.46509 -0.302307,-0.82941 -0.302307,-0.35657 -1.364258,-0.89917 -1.139465,-0.58911 -1.550293,-1.16272 -0.410828,-0.57361 -0.410828,-1.31 0,-0.96118 0.651123,-1.5968 0.658875,-0.63562 1.658814,-0.63562 1.16272,0 2.340942,1.13946 z m 24.523575,-1.77508 -0.89917,0.68988 q -0.744141,-0.96893 -1.790588,-1.46503 -1.038697,-0.50384 -2.286682,-0.50384 -1.364258,0 -2.526978,0.65887 -1.16272,0.65113 -1.806091,1.75958 -0.63562,1.10071 -0.63562,2.48047 0,2.08515 1.426269,3.48041 1.434021,1.39526 3.612183,1.39526 2.395202,0 4.007507,-1.87585 l 0.89917,0.68213 q -0.852661,1.0852 -2.131653,1.68207 -1.27124,0.58911 -2.844787,0.58911 -2.992066,0 -4.720643,-1.99213 -1.449523,-1.68207 -1.449523,-4.06177 0,-2.50372 1.751831,-4.20904 1.759582,-1.71307 4.402832,-1.71307 1.596801,0 2.883545,0.63562 1.286743,0.62786 2.108398,1.76733 z m 12.912907,6.48798 0.91468,0.48059 q -0.44959,0.88366 -1.0387,1.42627 -0.58911,0.5426 -1.3255,0.8294 -0.73639,0.27906 -1.66657,0.27906 -2.06189,0 -3.2246,-1.34876 -1.16272,-1.35651 -1.16272,-3.06183 0,-1.60455 0.98443,-2.86029 1.24799,-1.5968 3.34088,-1.5968 2.15491,0 3.44165,1.63556 0.91468,1.15497 0.93018,2.88354 h -7.58093 q 0.031,1.47278 0.93792,2.41846 0.90693,0.93793 2.24018,0.93793 0.64337,0 1.24798,-0.22479 0.61237,-0.2248 1.0387,-0.59687 0.42633,-0.37207 0.92242,-1.20147 z m 0,-2.27118 q -0.21704,-0.86817 -0.63562,-1.38752 -0.41082,-0.51934 -1.09295,-0.83715 -0.68213,-0.31781 -1.43402,-0.31781 -1.24024,0 -2.13166,0.7984 -0.65112,0.58136 -0.98443,1.74408 z m 6.5102,-3.36414 h 1.10846 v 1.23248 q 0.4961,-0.72863 1.04645,-1.0852 0.55036,-0.36432 1.14722,-0.36432 0.44958,0 0.96118,0.2868 l -0.56586,0.91468 q -0.34106,-0.14728 -0.57361,-0.14728 -0.5426,0 -1.04644,0.44958 -0.50385,0.44184 -0.7674,1.37976 -0.20154,0.72089 -0.20154,2.91456 v 2.85253 h -1.10846 z m 9.83558,-3.13159 h 1.09296 V 121.61 h 1.72082 v 0.93018 h -1.72082 v 7.50341 h -1.09296 v -7.50341 H 126.3298 V 121.61 h 1.48053 z m 8.51783,-0.34107 q 0.37207,0 0.63562,0.26355 0.26355,0.26355 0.26355,0.63562 0,0.36432 -0.26355,0.62787 -0.26355,0.26355 -0.63562,0.26355 -0.36432,0 -0.62787,-0.26355 -0.26355,-0.26355 -0.26355,-0.62787 0,-0.37207 0.26355,-0.63562 0.26355,-0.26355 0.62787,-0.26355 z m -0.5426,3.47266 h 1.09296 v 8.43359 h -1.09296 z m 10.51771,-3.25561 v 1.06195 q -0.59686,-0.2558 -1.0232,-0.2558 -0.31781,0 -0.52709,0.13177 -0.20929,0.12403 -0.26355,0.29456 -0.0543,0.16278 -0.0543,0.88367 V 121.61 h 1.75958 v 0.93018 h -1.76734 v 7.50341 h -1.0852 v -7.50341 h -1.10846 V 121.61 h 1.10846 v -1.31775 q 0,-0.90692 0.16278,-1.29449 0.17053,-0.38758 0.56586,-0.62012 0.40307,-0.2403 0.96893,-0.2403 0.5271,0 1.26349,0.21705 z m 5.59553,-0.21705 q 0.37207,0 0.63562,0.26355 0.26355,0.26355 0.26355,0.63562 0,0.36432 -0.26355,0.62787 -0.26355,0.26355 -0.63562,0.26355 -0.36432,0 -0.62787,-0.26355 -0.26355,-0.26355 -0.26355,-0.62787 0,-0.37207 0.26355,-0.63562 0.26355,-0.26355 0.62787,-0.26355 z m -0.54261,3.47266 h 1.09296 v 8.43359 h -1.09296 z m 15.2306,1.75183 -0.86041,0.53485 q -1.11621,-1.48053 -3.04633,-1.48053 -1.54254,0 -2.56573,0.99219 -1.01544,0.99219 -1.01544,2.41071 0,0.92242 0.46508,1.73632 0.47284,0.81391 1.28675,1.26349 0.82165,0.44959 1.83709,0.44959 1.86036,0 3.03858,-1.48053 l 0.86041,0.56586 q -0.60461,0.90692 -1.62781,1.41076 -1.01544,0.4961 -2.31768,0.4961 -1.99988,0 -3.31763,-1.27124 -1.31775,-1.27125 -1.31775,-3.09284 0,-1.22473 0.61237,-2.27118 0.62011,-1.0542 1.69757,-1.64331 1.07745,-0.58911 2.4107,-0.58911 0.83716,0 1.61231,0.2558 0.78289,0.2558 1.3255,0.66662 0.5426,0.41083 0.92242,1.04645 z m 14.1919,-1.75183 v 8.43359 h -1.06971 v -1.44952 q -0.68212,0.82941 -1.53479,1.24799 -0.84491,0.41858 -1.8526,0.41858 -1.79058,0 -3.06182,-1.2945 -1.26349,-1.30225 -1.26349,-3.1626 0,-1.82159 1.27899,-3.11609 1.27899,-1.29449 3.07733,-1.29449 1.0387,0 1.87585,0.44183 0.84491,0.44184 1.48053,1.3255 V 121.61 Z m -4.34082,0.82941 q -0.90693,0 -1.67432,0.44958 -0.7674,0.44184 -1.22473,1.24799 -0.44959,0.80615 -0.44959,1.70532 0,0.89142 0.45734,1.70532 0.45734,0.81391 1.22473,1.27124 0.77515,0.44959 1.65881,0.44959 0.89142,0 1.68982,-0.44959 0.7984,-0.44958 1.22474,-1.21698 0.43408,-0.76739 0.43408,-1.72857 0,-1.46503 -0.96894,-2.44947 -0.96118,-0.98443 -2.37194,-0.98443 z m 11.43238,-3.961 h 1.09296 V 121.61 h 1.72083 v 0.93018 h -1.72083 v 7.50341 h -1.09296 v -7.50341 h -1.48053 V 121.61 h 1.48053 z m 15.23835,8.76691 0.91467,0.48059 q -0.44959,0.88366 -1.0387,1.42627 -0.58911,0.5426 -1.3255,0.8294 -0.73639,0.27906 -1.66656,0.27906 -2.06189,0 -3.22461,-1.34876 -1.16272,-1.35651 -1.16272,-3.06183 0,-1.60455 0.98443,-2.86029 1.24799,-1.5968 3.34089,-1.5968 2.1549,0 3.44165,1.63556 0.91467,1.15497 0.93017,2.88354 h -7.58093 q 0.031,1.47278 0.93793,2.41846 0.90692,0.93793 2.24017,0.93793 0.64337,0 1.24799,-0.22479 0.61236,-0.2248 1.03869,-0.59687 0.42633,-0.37207 0.92243,-1.20147 z m 0,-2.27118 q -0.21704,-0.86817 -0.63562,-1.38752 -0.41083,-0.51934 -1.09296,-0.83715 -0.68213,-0.31781 -1.43402,-0.31781 -1.24024,0 -2.13165,0.7984 -0.65113,0.58136 -0.98444,1.74408 z m 15.4001,-6.8368 q 0.37207,0 0.63562,0.26355 0.26355,0.26355 0.26355,0.63562 0,0.36432 -0.26355,0.62787 -0.26355,0.26355 -0.63562,0.26355 -0.36432,0 -0.62787,-0.26355 -0.26355,-0.26355 -0.26355,-0.62787 0,-0.37207 0.26355,-0.63562 0.26355,-0.26355 0.62787,-0.26355 z m -0.54261,3.47266 h 1.09296 v 8.43359 h -1.09296 z m 11.28512,0.92242 -0.69764,0.72089 q -0.86816,-0.84491 -1.69757,-0.84491 -0.5271,0 -0.90692,0.34882 -0.37207,0.34881 -0.37207,0.8139 0,0.41083 0.31006,0.7829 0.31006,0.37982 1.30225,0.89142 1.20922,0.62787 1.64331,1.20923 0.42633,0.58911 0.42633,1.3255 0,1.03869 -0.72864,1.75958 -0.72864,0.72089 -1.8216,0.72089 -0.72863,0 -1.39526,-0.31781 -0.65887,-0.31781 -1.09296,-0.87592 l 0.68213,-0.77515 q 0.82941,0.93793 1.75959,0.93793 0.65112,0 1.10846,-0.41858 0.45733,-0.41858 0.45733,-0.98443 0,-0.46509 -0.30231,-0.82941 -0.3023,-0.35657 -1.36425,-0.89917 -1.13947,-0.58911 -1.5503,-1.16272 -0.41082,-0.57361 -0.41082,-1.31 0,-0.96118 0.65112,-1.5968 0.65887,-0.63562 1.65881,-0.63562 1.16272,0 2.34095,1.13946 z M 251.37958,121.61 v 8.43359 h -1.0697 v -1.44952 q -0.68213,0.82941 -1.53479,1.24799 -0.84491,0.41858 -1.85261,0.41858 -1.79058,0 -3.06182,-1.2945 -1.26349,-1.30225 -1.26349,-3.1626 0,-1.82159 1.27899,-3.11609 1.27899,-1.29449 3.07733,-1.29449 1.0387,0 1.87586,0.44183 0.84491,0.44184 1.48053,1.3255 V 121.61 Z m -4.34082,0.82941 q -0.90692,0 -1.67432,0.44958 -0.76739,0.44184 -1.22473,1.24799 -0.44959,0.80615 -0.44959,1.70532 0,0.89142 0.45734,1.70532 0.45734,0.81391 1.22473,1.27124 0.77515,0.44959 1.65882,0.44959 0.89141,0 1.68981,-0.44959 0.79841,-0.44958 1.22474,-1.21698 0.43408,-0.76739 0.43408,-1.72857 0,-1.46503 -0.96893,-2.44947 -0.96119,-0.98443 -2.37195,-0.98443 z m 9.34723,-0.82941 h 1.11621 l 2.58123,6.12366 2.70527,-6.12366 h 0.19378 l 2.69751,6.12366 2.62775,-6.12366 h 1.13171 l -3.65869,8.43359 h -0.20929 l -2.68201,-6.03839 -2.70526,6.03839 h -0.20153 z m 26.43922,0 v 8.43359 h -1.0697 v -1.44952 q -0.68213,0.82941 -1.53479,1.24799 -0.84491,0.41858 -1.8526,0.41858 -1.79059,0 -3.06183,-1.2945 -1.26349,-1.30225 -1.26349,-3.1626 0,-1.82159 1.27899,-3.11609 1.27899,-1.29449 3.07733,-1.29449 1.0387,0 1.87586,0.44183 0.84491,0.44184 1.48053,1.3255 V 121.61 Z m -4.34082,0.82941 q -0.90692,0 -1.67432,0.44958 -0.76739,0.44184 -1.22473,1.24799 -0.44958,0.80615 -0.44958,1.70532 0,0.89142 0.45733,1.70532 0.45734,0.81391 1.22473,1.27124 0.77515,0.44959 1.65882,0.44959 0.89142,0 1.68982,-0.44959 0.7984,-0.44958 1.22473,-1.21698 0.43408,-0.76739 0.43408,-1.72857 0,-1.46503 -0.96893,-2.44947 -0.96118,-0.98443 -2.37195,-0.98443 z M 288.56026,121.61 h 1.10846 v 1.23248 q 0.49609,-0.72863 1.04644,-1.0852 0.55036,-0.36432 1.14722,-0.36432 0.44959,0 0.96118,0.2868 l -0.56585,0.91468 q -0.34107,-0.14728 -0.57361,-0.14728 -0.54261,0 -1.04645,0.44958 -0.50385,0.44184 -0.7674,1.37976 -0.20153,0.72089 -0.20153,2.91456 v 2.85253 h -1.10846 z m 17.308,-3.25561 v 11.6892 h -1.06971 v -1.44952 q -0.68213,0.82941 -1.53479,1.24799 -0.84491,0.41858 -1.8526,0.41858 -1.79059,0 -3.06183,-1.2945 -1.26348,-1.30225 -1.26348,-3.1626 0,-1.82159 1.27899,-3.11609 1.27899,-1.29449 3.07733,-1.29449 1.0387,0 1.87585,0.44183 0.84491,0.44184 1.48053,1.3255 v -4.8059 z m -4.34083,4.08502 q -0.90692,0 -1.67431,0.44958 -0.7674,0.44184 -1.22473,1.24799 -0.44959,0.80615 -0.44959,1.70532 0,0.89142 0.45734,1.70532 0.45733,0.81391 1.22473,1.27124 0.77515,0.44959 1.65881,0.44959 0.89142,0 1.68982,-0.44959 0.7984,-0.44958 1.22473,-1.21698 0.43409,-0.76739 0.43409,-1.72857 0,-1.46503 -0.96894,-2.44947 -0.96118,-0.98443 -2.37195,-0.98443 z m 17.60254,4.80591 0.91468,0.48059 q -0.44959,0.88366 -1.0387,1.42627 -0.58911,0.5426 -1.3255,0.8294 -0.73639,0.27906 -1.66656,0.27906 -2.06189,0 -3.22461,-1.34876 -1.16272,-1.35651 -1.16272,-3.06183 0,-1.60455 0.98443,-2.86029 1.24799,-1.5968 3.34088,-1.5968 2.15491,0 3.44165,1.63556 0.91468,1.15497 0.93018,2.88354 h -7.58093 q 0.031,1.47278 0.93792,2.41846 0.90693,0.93793 2.24018,0.93793 0.64337,0 1.24798,-0.22479 0.61237,-0.2248 1.0387,-0.59687 0.42633,-0.37207 0.92242,-1.20147 z m 0,-2.27118 q -0.21704,-0.86817 -0.63562,-1.38752 -0.41082,-0.51934 -1.09295,-0.83715 -0.68213,-0.31781 -1.43402,-0.31781 -1.24024,0 -2.13166,0.7984 -0.65112,0.58136 -0.98443,1.74408 z m 15.33912,-6.61975 v 11.6892 h -1.06971 v -1.44952 q -0.68213,0.82941 -1.53479,1.24799 -0.84491,0.41858 -1.8526,0.41858 -1.79059,0 -3.06183,-1.2945 -1.26348,-1.30225 -1.26348,-3.1626 0,-1.82159 1.27899,-3.11609 1.27899,-1.29449 3.07733,-1.29449 1.0387,0 1.87585,0.44183 0.84491,0.44184 1.48053,1.3255 v -4.8059 z m -4.34082,4.08502 q -0.90693,0 -1.67432,0.44958 -0.7674,0.44184 -1.22473,1.24799 -0.44959,0.80615 -0.44959,1.70532 0,0.89142 0.45734,1.70532 0.45734,0.81391 1.22473,1.27124 0.77515,0.44959 1.65881,0.44959 0.89142,0 1.68982,-0.44959 0.7984,-0.44958 1.22473,-1.21698 0.43409,-0.76739 0.43409,-1.72857 0,-1.46503 -0.96894,-2.44947 -0.96118,-0.98443 -2.37194,-0.98443 z m 19.54714,-3.961 h 1.09296 V 121.61 h 1.72083 v 0.93018 h -1.72083 v 7.50341 h -1.09296 v -7.50341 h -1.48053 V 121.61 h 1.48053 z m 12.13001,2.91455 q 1.94562,0 3.22461,1.41077 1.16272,1.28674 1.16272,3.04632 0,1.76734 -1.23248,3.09284 -1.22474,1.31775 -3.15485,1.31775 -1.93787,0 -3.17035,-1.31775 -1.22473,-1.3255 -1.22473,-3.09284 0,-1.75183 1.16272,-3.03857 1.27899,-1.41852 3.23236,-1.41852 z m 0,1.06195 q -1.34876,0 -2.31769,0.99994 -0.96893,0.99994 -0.96893,2.41846 0,0.91467 0.44183,1.70532 0.44184,0.79065 1.19373,1.22473 0.75189,0.42633 1.65106,0.42633 0.89917,0 1.65106,-0.42633 0.75189,-0.43408 1.19373,-1.22473 0.44183,-0.79065 0.44183,-1.70532 0,-1.41852 -0.97668,-2.41846 -0.96894,-0.99994 -2.30994,-0.99994 z"
       id="text5"
       style="font-size:15.875px;font-family:'Century Gothic';-inkscape-font-specification:'Century Gothic';text-align:center;letter-spacing:3.70417px;text-anchor:middle;fill:#272729;stroke-width:0.264583;stroke-linecap:round"
       inkscape:label="Awrded to "
       aria-label="This Certificate is awarded to" /><path
       style="font-size:15.875px;font-family:'Century Gothic';-inkscape-font-specification:'Century Gothic';text-align:center;letter-spacing:3.70417px;text-anchor:middle;fill:#272729;stroke-width:0.264583;stroke-linecap:round"
       d="m 40.459991,189.17137 h 5.71283 v 1.12396 h -4.581116 v 3.56568 h 4.581116 v 1.12396 h -4.581116 v 5.58881 h -1.131714 z m 15.215096,2.75177 q 1.945617,0 3.224609,1.41077 1.16272,1.28674 1.16272,3.04632 0,1.76734 -1.232483,3.09284 -1.224732,1.31775 -3.154846,1.31775 -1.937867,0 -3.17035,-1.31775 -1.224731,-1.3255 -1.224731,-3.09284 0,-1.75183 1.16272,-3.03857 1.278991,-1.41852 3.232361,-1.41852 z m 0,1.06195 q -1.348755,0 -2.317688,0.99994 -0.968933,0.99994 -0.968933,2.41846 0,0.91467 0.441833,1.70532 0.441834,0.79065 1.193726,1.22473 0.751892,0.42633 1.651062,0.42633 0.89917,0 1.651062,-0.42633 0.751892,-0.43408 1.193725,-1.22473 0.441834,-0.79065 0.441834,-1.70532 0,-1.41852 -0.976685,-2.41846 -0.968933,-0.99994 -2.309936,-0.99994 z m 9.696052,-0.84491 h 1.10846 v 1.23249 q 0.496093,-0.72864 1.046447,-1.08521 0.550354,-0.36432 1.147217,-0.36432 0.449585,0 0.961182,0.28681 l -0.565857,0.91467 q -0.341065,-0.14728 -0.573608,-0.14728 -0.542603,0 -1.046448,0.44959 -0.503845,0.44183 -0.767395,1.37976 -0.201538,0.72088 -0.201538,2.91455 v 2.85254 h -1.10846 z m 25.174698,1.75183 -0.860413,0.53485 q -1.11621,-1.48053 -3.046325,-1.48053 -1.542542,0 -2.565735,0.99219 -1.015442,0.99219 -1.015442,2.41071 0,0.92242 0.465088,1.73633 0.472839,0.8139 1.286743,1.26348 0.821655,0.44959 1.837097,0.44959 1.860352,0 3.038574,-1.48053 l 0.860413,0.56586 q -0.604614,0.90692 -1.627808,1.41076 -1.015441,0.4961 -2.317688,0.4961 -1.999877,0 -3.317627,-1.27124 -1.317749,-1.27124 -1.317749,-3.09284 0,-1.22473 0.612366,-2.27118 0.620117,-1.0542 1.697571,-1.64331 1.077454,-0.58911 2.410706,-0.58911 0.837158,0 1.612304,0.2558 0.782898,0.2558 1.325501,0.66663 0.542602,0.41082 0.922424,1.04644 z m 9.781323,-1.96887 q 1.94561,0 3.22461,1.41077 1.16271,1.28674 1.16271,3.04632 0,1.76734 -1.23248,3.09284 -1.22473,1.31775 -3.15484,1.31775 -1.937871,0 -3.170353,-1.31775 -1.224732,-1.3255 -1.224732,-3.09284 0,-1.75183 1.16272,-3.03857 1.278992,-1.41852 3.232365,-1.41852 z m 0,1.06195 q -1.348759,0 -2.317692,0.99994 -0.968933,0.99994 -0.968933,2.41846 0,0.91467 0.441833,1.70532 0.441834,0.79065 1.193726,1.22473 0.751892,0.42633 1.651066,0.42633 0.89917,0 1.65106,-0.42633 0.75189,-0.43408 1.19372,-1.22473 0.44184,-0.79065 0.44184,-1.70532 0,-1.41852 -0.97669,-2.41846 -0.96893,-0.99994 -2.30993,-0.99994 z m 10.09912,-0.84491 h 1.07746 v 1.45728 q 0.56585,-0.80615 1.16272,-1.17822 0.82165,-0.4961 1.72857,-0.4961 0.61237,0 1.16272,0.2403 0.55036,0.24029 0.89917,0.64337 0.34882,0.39532 0.60462,1.13946 0.5426,-0.99218 1.3565,-1.50378 0.81391,-0.51935 1.75184,-0.51935 0.87591,0 1.54254,0.44183 0.67437,0.44184 0.99994,1.23249 0.32556,0.79065 0.32556,2.37195 v 4.60437 h -1.10846 v -4.60437 q 0,-1.35651 -0.19379,-1.86036 -0.19378,-0.51159 -0.66662,-0.82165 -0.46509,-0.31006 -1.11622,-0.31006 -0.79064,0 -1.44952,0.46509 -0.65112,0.46509 -0.95343,1.24023 -0.30231,0.77515 -0.30231,2.58899 v 3.30213 h -1.07745 v -4.31757 q 0,-1.52704 -0.19379,-2.06964 -0.18603,-0.55035 -0.65887,-0.87592 -0.47284,-0.33331 -1.12396,-0.33331 -0.7519,0 -1.41077,0.45734 -0.65112,0.44958 -0.96893,1.21698 -0.31006,0.76739 -0.31006,2.34869 v 3.57343 h -1.07746 z m 18.98231,-3.47265 q 0.37207,0 0.63562,0.26355 0.26355,0.26355 0.26355,0.63562 0,0.36432 -0.26355,0.62786 -0.26355,0.26355 -0.63562,0.26355 -0.36432,0 -0.62787,-0.26355 -0.26355,-0.26354 -0.26355,-0.62786 0,-0.37207 0.26355,-0.63562 0.26355,-0.26355 0.62787,-0.26355 z m -0.5426,3.47265 h 1.09296 v 8.4336 h -1.09296 z m 7.04505,0 h 1.08521 v 1.51154 q 0.65112,-0.86817 1.44177,-1.2945 0.79065,-0.43408 1.72082,-0.43408 0.94568,0 1.67432,0.48059 0.73639,0.48059 1.08521,1.2945 0.34881,0.8139 0.34881,2.53473 v 4.34082 h -1.07745 v -4.02301 q 0,-1.45728 -0.12403,-1.94562 -0.19378,-0.83716 -0.72863,-1.25574 -0.53485,-0.42633 -1.39527,-0.42633 -0.98443,0 -1.76733,0.65112 -0.77515,0.65113 -1.02319,1.61231 -0.15503,0.62787 -0.15503,2.29443 v 3.09284 h -1.08521 z m 20.64887,0 h 1.09296 v 6.72052 q 0,1.77509 -0.31006,2.59674 -0.42633,1.16272 -1.48053,1.79059 -1.0542,0.62787 -2.53473,0.62787 -1.0852,0 -1.95337,-0.31006 -0.86041,-0.30231 -1.40301,-0.82165 -0.5426,-0.5116 -0.99994,-1.50379 h 1.17822 q 0.48059,0.83716 1.24024,1.24024 0.75964,0.40307 1.8836,0.40307 1.10846,0 1.86811,-0.41858 0.76739,-0.41082 1.09295,-1.03869 0.32556,-0.62787 0.32556,-2.02313 v -0.43409 q -0.61236,0.77515 -1.49603,1.19373 -0.88367,0.41083 -1.87585,0.41083 -1.16272,0 -2.18592,-0.57361 -1.02319,-0.58136 -1.5813,-1.55805 -0.5581,-0.97668 -0.5581,-2.14715 0,-1.17047 0.58136,-2.17816 0.58136,-1.01545 1.60455,-1.60456 1.03095,-0.58911 2.17041,-0.58911 0.94568,0 1.75958,0.39533 0.82166,0.38757 1.5813,1.28674 z m -3.20135,0.82941 q -0.92243,0 -1.71308,0.44958 -0.79064,0.44184 -1.24023,1.23249 -0.44958,0.7829 -0.44958,1.69757 0,1.38751 0.93017,2.29443 0.93018,0.90692 2.41071,0.90692 1.49603,0 2.40295,-0.89917 0.91467,-0.89917 0.91467,-2.36419 0,-0.95343 -0.41858,-1.69757 -0.41857,-0.7519 -1.18597,-1.18598 -0.76739,-0.43408 -1.65106,-0.43408 z m 18.80298,-4.30206 q 0.37207,0 0.63562,0.26355 0.26355,0.26355 0.26355,0.63562 0,0.36432 -0.26355,0.62786 -0.26355,0.26355 -0.63562,0.26355 -0.36431,0 -0.62786,-0.26355 -0.26355,-0.26354 -0.26355,-0.62786 0,-0.37207 0.26355,-0.63562 0.26355,-0.26355 0.62786,-0.26355 z m -0.5426,3.47265 h 1.09296 v 8.4336 h -1.09296 z m 7.04506,0 h 1.08521 v 1.51154 q 0.65112,-0.86817 1.44177,-1.2945 0.79065,-0.43408 1.72082,-0.43408 0.94568,0 1.67432,0.48059 0.73639,0.48059 1.08521,1.2945 0.34881,0.8139 0.34881,2.53473 v 4.34082 h -1.07745 v -4.02301 q 0,-1.45728 -0.12403,-1.94562 -0.19378,-0.83716 -0.72863,-1.25574 -0.53485,-0.42633 -1.39527,-0.42633 -0.98443,0 -1.76733,0.65112 -0.77515,0.65113 -1.02319,1.61231 -0.15503,0.62787 -0.15503,2.29443 v 3.09284 H 178.664 Z m 23.21358,-2.96881 h 2.24017 v 11.40241 h -1.13171 v -10.2862 h -1.79059 z m 15.01355,3.89124 -0.69763,0.72088 q -0.86817,-0.84491 -1.69757,-0.84491 -0.5271,0 -0.90693,0.34882 -0.37207,0.34882 -0.37207,0.8139 0,0.41083 0.31006,0.7829 0.31006,0.37982 1.30225,0.89142 1.20923,0.62787 1.64331,1.20923 0.42633,0.58911 0.42633,1.3255 0,1.03869 -0.72864,1.75958 -0.72864,0.72089 -1.82159,0.72089 -0.72864,0 -1.39527,-0.31781 -0.65887,-0.31781 -1.09295,-0.87592 l 0.68213,-0.77514 q 0.8294,0.93792 1.75958,0.93792 0.65112,0 1.10846,-0.41858 0.45733,-0.41858 0.45733,-0.98443 0,-0.46509 -0.3023,-0.82941 -0.30231,-0.35657 -1.36426,-0.89917 -1.13947,-0.58911 -1.55029,-1.16272 -0.41083,-0.57361 -0.41083,-1.31 0,-0.96118 0.65112,-1.5968 0.65888,-0.63562 1.65882,-0.63562 1.16272,0 2.34094,1.13947 z m 6.57222,-4.05402 h 1.09295 v 3.13159 h 1.72083 v 0.93018 h -1.72083 v 7.50342 h -1.09295 v -7.50342 h -1.48053 v -0.93018 h 1.48053 z m 16.40779,0.16278 h 2.27118 q 1.95337,0 2.6355,0.17053 0.97668,0.2403 1.5968,0.99219 0.62012,0.74414 0.62012,1.87586 0,1.13946 -0.60462,1.8836 -0.60461,0.73639 -1.66656,0.99219 -0.77515,0.18603 -2.89905,0.18603 h -0.81391 v 5.30201 h -1.13946 z m 1.13946,1.10846 v 3.87573 l 1.93012,0.0233 q 1.17047,0 1.71307,-0.20929 0.54261,-0.21704 0.85266,-0.68988 0.31006,-0.48059 0.31006,-1.0697 0,-0.57361 -0.31006,-1.04645 -0.31005,-0.48059 -0.82165,-0.68213 -0.50385,-0.20154 -1.65881,-0.20154 z m 11.62616,-1.39526 h 1.08521 v 11.68921 h -1.08521 z m 15.44765,3.25561 v 8.4336 h -1.0697 v -1.44953 q -0.68213,0.82941 -1.53479,1.24799 -0.84491,0.41858 -1.8526,0.41858 -1.79059,0 -3.06183,-1.2945 -1.26349,-1.30224 -1.26349,-3.1626 0,-1.82159 1.27899,-3.11608 1.27899,-1.2945 3.07733,-1.2945 1.0387,0 1.87586,0.44183 0.84491,0.44184 1.48053,1.32551 v -1.5503 z m -4.34082,0.82941 q -0.90692,0 -1.67432,0.44958 -0.76739,0.44184 -1.22473,1.24799 -0.44958,0.80615 -0.44958,1.70532 0,0.89142 0.45733,1.70532 0.45734,0.81391 1.22474,1.27124 0.77514,0.44959 1.65881,0.44959 0.89142,0 1.68982,-0.44959 0.7984,-0.44958 1.22473,-1.21698 0.43408,-0.76739 0.43408,-1.72857 0,-1.46503 -0.96893,-2.44946 -0.96118,-0.98444 -2.37195,-0.98444 z m 18.67224,0.92242 -0.86041,0.53485 q -1.11621,-1.48053 -3.04633,-1.48053 -1.54254,0 -2.56573,0.99219 -1.01544,0.99219 -1.01544,2.41071 0,0.92242 0.46509,1.73633 0.47283,0.8139 1.28674,1.26348 0.82165,0.44959 1.8371,0.44959 1.86035,0 3.03857,-1.48053 l 0.86041,0.56586 q -0.60461,0.90692 -1.62781,1.41076 -1.01544,0.4961 -2.31768,0.4961 -1.99988,0 -3.31763,-1.27124 -1.31775,-1.27124 -1.31775,-3.09284 0,-1.22473 0.61237,-2.27118 0.62011,-1.0542 1.69757,-1.64331 1.07745,-0.58911 2.4107,-0.58911 0.83716,0 1.61231,0.2558 0.7829,0.2558 1.3255,0.66663 0.5426,0.41082 0.92242,1.04644 z m 12.88967,3.88349 0.91467,0.48059 q -0.44959,0.88367 -1.0387,1.42627 -0.58911,0.5426 -1.3255,0.8294 -0.73639,0.27906 -1.66656,0.27906 -2.06189,0 -3.22461,-1.34876 -1.16272,-1.3565 -1.16272,-3.06183 0,-1.60455 0.98443,-2.86029 1.24799,-1.5968 3.34089,-1.5968 2.1549,0 3.44165,1.63556 0.91467,1.15497 0.93017,2.88355 h -7.58093 q 0.031,1.47277 0.93793,2.41845 0.90692,0.93793 2.24017,0.93793 0.64337,0 1.24799,-0.22479 0.61236,-0.2248 1.03869,-0.59687 0.42633,-0.37207 0.92243,-1.20147 z m 0,-2.27118 q -0.21705,-0.86817 -0.63562,-1.38751 -0.41083,-0.51935 -1.09296,-0.83716 -0.68213,-0.31781 -1.43402,-0.31781 -1.24024,0 -2.13165,0.7984 -0.65113,0.58136 -0.98444,1.74408 z m 15.4001,-6.83679 q 0.37207,0 0.63562,0.26355 0.26355,0.26355 0.26355,0.63562 0,0.36432 -0.26355,0.62786 -0.26355,0.26355 -0.63562,0.26355 -0.36432,0 -0.62787,-0.26355 -0.26355,-0.26354 -0.26355,-0.62786 0,-0.37207 0.26355,-0.63562 0.26355,-0.26355 0.62787,-0.26355 z m -0.54261,3.47265 h 1.09296 v 8.4336 h -1.09296 z m 7.04505,0 h 1.0852 v 1.51154 q 0.65113,-0.86817 1.44178,-1.2945 0.79064,-0.43408 1.72082,-0.43408 0.94568,0 1.67432,0.48059 0.73639,0.48059 1.0852,1.2945 0.34882,0.8139 0.34882,2.53473 v 4.34082 h -1.07746 v -4.02301 q 0,-1.45728 -0.12402,-1.94562 -0.19379,-0.83716 -0.72864,-1.25574 -0.53485,-0.42633 -1.39526,-0.42633 -0.98444,0 -1.76733,0.65112 -0.77515,0.65113 -1.0232,1.61231 -0.15503,0.62787 -0.15503,2.29443 v 3.09284 h -1.0852 z m 22.43069,-3.13159 h 1.09296 v 3.13159 h 1.72082 v 0.93018 h -1.72082 v 7.50342 h -1.09296 v -7.50342 h -1.48053 v -0.93018 h 1.48053 z m 8.138,-0.12402 h 1.08521 v 4.76715 q 0.65887,-0.86817 1.44952,-1.2945 0.79065,-0.43408 1.71308,-0.43408 0.94567,0 1.67431,0.48059 0.73639,0.48059 1.08521,1.2945 0.34881,0.80615 0.34881,2.53473 v 4.34082 h -1.0852 v -4.02301 q 0,-1.45728 -0.11627,-1.94562 -0.20154,-0.83716 -0.73639,-1.25574 -0.5271,-0.42633 -1.38752,-0.42633 -0.98443,0 -1.76733,0.65112 -0.77515,0.65113 -1.02319,1.61231 -0.15503,0.62012 -0.15503,2.29443 v 3.09284 h -1.08521 z m 20.48609,8.89093 0.91467,0.48059 q -0.44959,0.88367 -1.0387,1.42627 -0.58911,0.5426 -1.3255,0.8294 -0.73639,0.27906 -1.66656,0.27906 -2.06189,0 -3.22461,-1.34876 -1.16272,-1.3565 -1.16272,-3.06183 0,-1.60455 0.98444,-2.86029 1.24798,-1.5968 3.34088,-1.5968 2.1549,0 3.44165,1.63556 0.91467,1.15497 0.93017,2.88355 h -7.58093 q 0.031,1.47277 0.93793,2.41845 0.90692,0.93793 2.24017,0.93793 0.64337,0 1.24799,-0.22479 0.61236,-0.2248 1.03869,-0.59687 0.42633,-0.37207 0.92243,-1.20147 z m 0,-2.27118 q -0.21704,-0.86817 -0.63562,-1.38751 -0.41083,-0.51935 -1.09296,-0.83716 -0.68213,-0.31781 -1.43402,-0.31781 -1.24024,0 -2.13165,0.7984 -0.65113,0.58136 -0.98444,1.74408 z"
       id="text6"
       inkscape:label="Comp Name"
       aria-label="For coming in 1st Place in the" /><text
       xml:space="preserve"
       style="font-style:normal;font-variant:normal;font-weight:normal;font-stretch:normal;font-size:12.3472px;font-family:'Brush Script MT';-inkscape-font-specification:'Brush Script MT, Normal';text-align:start;letter-spacing:1.11654px;writing-mode:lr-tb;direction:ltr;text-anchor:start;fill:#272729;fill-opacity:1;stroke:none;stroke-width:0.223307;stroke-linecap:round;stroke-linejoin:miter;stroke-dasharray:none;stroke-opacity:1;paint-order:normal;font-variant-ligatures:normal;font-variant-caps:normal;font-variant-numeric:normal;font-variant-east-asian:normal"
       x="34.090694"
       y="244.75407"
       id="text8"
       transform="rotate(0.1407149)"
       inkscape:label="Team Leader"><tspan
         sodipodi:role="line"
         id="tspan8"
         style="font-style:normal;font-variant:normal;font-weight:normal;font-stretch:normal;font-family:'Brush Script MT';-inkscape-font-specification:'Brush Script MT, Normal';text-align:start;letter-spacing:1.11654px;text-anchor:start;stroke-width:0.223307;font-size:12.34722222px;font-variant-ligatures:normal;font-variant-caps:normal;font-variant-numeric:normal;font-variant-east-asian:normal"
         x="34.090694"
         y="244.75407">{{Team Manager}}</tspan></text><text
       xml:space="preserve"
       style="font-style:normal;font-variant:normal;font-weight:normal;font-stretch:normal;font-size:12.3472px;font-family:'Brush Script MT';-inkscape-font-specification:'Brush Script MT, Normal';text-align:center;letter-spacing:0.264583px;writing-mode:lr-tb;direction:ltr;text-anchor:middle;fill:#272729;fill-opacity:1;stroke:none;stroke-width:0.264583;stroke-linecap:round;stroke-linejoin:miter;stroke-dasharray:none;stroke-opacity:1;paint-order:normal;font-variant-ligatures:normal;font-variant-caps:normal;font-variant-numeric:normal;font-variant-east-asian:normal"
       x="370.77216"
       y="245.40356"
       id="text9"
       inkscape:label="Date"><tspan
         sodipodi:role="line"
         id="tspan9"
         style="font-style:normal;font-variant:normal;font-weight:normal;font-stretch:normal;font-family:'Brush Script MT';-inkscape-font-specification:'Brush Script MT, Normal';text-align:end;letter-spacing:0.264583px;text-anchor:end;stroke-width:0.264583;font-size:12.34722222px;font-variant-ligatures:normal;font-variant-caps:normal;font-variant-numeric:normal;font-variant-east-asian:normal"
         x="371.03674"
         y="245.40356">{{Date}}</tspan></text><text
       xml:space="preserve"
       style="font-style:normal;font-variant:normal;font-weight:normal;font-stretch:normal;font-size:14.1111px;font-family:'Century Gothic';-inkscape-font-specification:'Century Gothic';text-align:start;letter-spacing:0.33073px;writing-mode:lr-tb;direction:ltr;text-anchor:start;fill:#272729;fill-opacity:1;stroke:none;stroke-width:0.0661456;stroke-linecap:round"
       x="201.36154"
       y="216.8998"
       id="text1"><tspan
         sodipodi:role="line"
         id="tspan1"
         style="font-style:normal;font-variant:normal;font-weight:normal;font-stretch:normal;font-size:15.875px;font-family:Sans;-inkscape-font-specification:'Sans, Normal';font-variant-ligatures:normal;font-variant-caps:normal;font-variant-numeric:normal;font-variant-east-asian:normal;text-align:end;text-anchor:end;fill:#272729;fill-opacity:1;stroke:none;stroke-width:0.0661456"
         x="201.69228"
         y="216.8998">{{Pod Name}}</tspan></text></g><g
     inkscape:groupmode="layer"
     id="layer2"
     inkscape:label="1st"><path
       style="font-size:102.824px;font-family:'Century Gothic';-inkscape-font-specification:'Century Gothic';text-align:center;letter-spacing:0px;text-anchor:middle;white-space:pre;inline-size:394.876;fill:#9f8f5e;stroke-width:4.23332;stroke-linecap:round"
       d="m 161.56039,1.0015608 h 14.50983 V 74.856102 h -7.33023 V 8.2313731 h -11.59782 z"
       id="text3-5-1"
       transform="matrix(1.2598511,0,0,0.9268551,205.87478,179.65838)"
       aria-label="1" /><path
       style="font-size:29.1001px;font-family:'Century Gothic';-inkscape-font-specification:'Century Gothic';text-align:center;letter-spacing:2.42501px;text-anchor:middle;fill:#9f8f5e;stroke-width:0.485;stroke-linecap:round"
       d="m 450.28254,189.11704 -1.27882,1.32144 q -1.59141,-1.54879 -3.11177,-1.54879 -0.96622,0 -1.66246,0.63941 -0.68203,0.63941 -0.68203,1.49195 0,0.75308 0.56836,1.43511 0.56836,0.69624 2.38711,1.63404 2.21661,1.15093 3.01232,2.21661 0.7815,1.07988 0.7815,2.42974 0,1.90401 -1.33565,3.22545 -1.33565,1.32144 -3.33913,1.32144 -1.33564,0 -2.55762,-0.58257 -1.20777,-0.58257 -2.00348,-1.60562 l 1.2504,-1.4209 q 1.52037,1.71929 3.22545,1.71929 1.19356,0 2.03189,-0.76729 0.83833,-0.76728 0.83833,-1.80454 0,-0.85255 -0.55415,-1.52037 -0.55415,-0.65362 -2.50079,-1.64825 -2.08873,-1.07988 -2.8418,-2.13135 -0.75308,-1.05147 -0.75308,-2.40133 0,-1.76192 1.19356,-2.92706 1.20776,-1.16514 3.04073,-1.16514 2.13135,0 4.29113,2.08873 z m 7.68235,-7.43133 h 2.00347 v 5.74045 h 3.15441 v 1.70509 h -3.15441 v 13.75434 h -2.00347 v -13.75434 h -2.71393 v -1.70509 h 2.71393 z"
       id="text11"
       aria-label="st" /></g><style
     type="text/css"
     id="style1">
	.st0{fill:#FFC54D;}
	.st1{fill:#EDB24A;}
	.st2{fill:#5195FF;}
	.st3{fill:#F46262;}
</style><path
     style="font-size:15.875px;font-family:Sans;-inkscape-font-specification:'Sans, Normal';letter-spacing:1.32292px;fill:#272729;stroke-width:0;stroke-linecap:round"
     d="m 219.87955,217.13202 h -1.99213 l -4.56561,-5.13922 -1.14722,1.22473 v 3.91449 h -1.53479 v -11.54193 h 1.53479 v 6.02289 l 5.60431,-6.02289 h 1.86035 l -5.15472,5.42602 z m 10.59367,-8.05377 q 0,0.76739 -0.2713,1.42627 -0.26355,0.65112 -0.74414,1.13171 -0.59687,0.59686 -1.41077,0.89917 -0.8139,0.29456 -2.05414,0.29456 h -1.53479 v 4.30206 h -1.53479 v -11.54193 h 3.13159 q 1.0387,0 1.75959,0.17828 0.72088,0.17053 1.27899,0.5426 0.65887,0.44184 1.01544,1.10071 0.36432,0.65888 0.36432,1.66657 z m -1.5968,0.0387 q 0,-0.59686 -0.20929,-1.03869 -0.20929,-0.44184 -0.63562,-0.72089 -0.37207,-0.24029 -0.85266,-0.34106 -0.47284,-0.10852 -1.20148,-0.10852 h -1.51929 v 4.61212 h 1.2945 q 0.93017,0 1.51153,-0.16278 0.58136,-0.17053 0.94568,-0.53485 0.36432,-0.37207 0.5116,-0.7829 0.15503,-0.41083 0.15503,-0.92243 z m 9.01237,8.01502 h -4.55786 v -1.17822 h 1.51153 v -9.18549 h -1.51153 v -1.17822 h 4.55786 v 1.17822 h -1.51154 v 9.18549 h 1.51154 z m 19.75332,-0.83716 q -0.42633,0.18604 -0.77514,0.34882 -0.34107,0.16278 -0.89917,0.34106 -0.47284,0.14728 -1.03095,0.24805 -0.55035,0.10852 -1.21698,0.10852 -1.25574,0 -2.28668,-0.34882 -1.02319,-0.35656 -1.78284,-1.10846 -0.74414,-0.73639 -1.16272,-1.8681 -0.41858,-1.13947 -0.41858,-2.64325 0,-1.42627 0.40308,-2.55023 0.40308,-1.12396 1.16272,-1.89911 0.73639,-0.75189 1.77508,-1.14722 1.04645,-0.39532 2.31769,-0.39532 0.93018,0 1.8526,0.22479 0.93018,0.22479 2.06189,0.79065 v 1.82159 h -0.11627 q -0.95343,-0.7984 -1.89136,-1.16272 -0.93792,-0.36431 -2.00763,-0.36431 -0.87591,0 -1.58129,0.2868 -0.69764,0.27905 -1.24799,0.87592 -0.53485,0.58136 -0.83716,1.47277 -0.29455,0.88367 -0.29455,2.04639 0,1.21698 0.32556,2.0929 0.33331,0.87591 0.85266,1.42627 0.5426,0.5736 1.26349,0.85266 0.72863,0.2713 1.53479,0.2713 1.10846,0 2.07739,-0.37982 0.96893,-0.37983 1.81384,-1.13947 h 0.10852 z m 10.75646,-3.48816 q 0,2.11615 -1.08521,3.34088 -1.0852,1.22473 -2.9068,1.22473 -1.83709,0 -2.9223,-1.22473 -1.07745,-1.22473 -1.07745,-3.34088 0,-2.11615 1.07745,-3.34088 1.08521,-1.23248 2.9223,-1.23248 1.8216,0 2.9068,1.23248 1.08521,1.22473 1.08521,3.34088 z m -1.50379,0 q 0,-1.68207 -0.65887,-2.49597 -0.65888,-0.82166 -1.82935,-0.82166 -1.18597,0 -1.84485,0.82166 -0.65112,0.8139 -0.65112,2.49597 0,1.62781 0.65888,2.47272 0.65887,0.83716 1.83709,0.83716 1.16272,0 1.8216,-0.82941 0.66662,-0.83716 0.66662,-2.48047 z m 17.71727,4.32532 h -1.45728 v -4.92993 q 0,-0.55811 -0.0543,-1.07746 -0.0465,-0.51934 -0.20929,-0.8294 -0.17828,-0.33332 -0.51159,-0.50385 -0.33332,-0.17053 -0.96118,-0.17053 -0.61237,0 -1.22474,0.31006 -0.61236,0.30231 -1.22473,0.77514 0.0233,0.17829 0.0388,0.41858 0.0155,0.23255 0.0155,0.46509 v 5.5423 h -1.45727 v -4.92993 q 0,-0.57361 -0.0543,-1.08521 -0.0465,-0.51935 -0.20929,-0.8294 -0.17829,-0.33332 -0.5116,-0.4961 -0.33331,-0.17053 -0.96118,-0.17053 -0.59686,0 -1.20148,0.29456 -0.59686,0.29455 -1.19372,0.75189 v 6.46472 h -1.45728 v -8.65839 h 1.45728 v 0.96118 q 0.68213,-0.56585 1.3565,-0.88366 0.68213,-0.31781 1.44953,-0.31781 0.88366,0 1.49603,0.37207 0.62012,0.37207 0.92242,1.03094 0.88367,-0.74414 1.61231,-1.0697 0.72864,-0.33331 1.55804,-0.33331 1.42627,0 2.10065,0.86816 0.68213,0.86041 0.68213,2.41071 z m 11.74864,-4.43384 q 0,1.0542 -0.30231,1.93012 -0.30231,0.86816 -0.85266,1.47277 -0.5116,0.57361 -1.20923,0.89142 -0.68988,0.31006 -1.46503,0.31006 -0.67437,0 -1.22473,-0.14728 -0.5426,-0.14727 -1.10846,-0.45733 v 3.62768 H 288.741 v -11.85199 h 1.45727 v 0.90692 q 0.58136,-0.48834 1.30225,-0.8139 0.72864,-0.33331 1.55029,-0.33331 1.5658,0 2.43396,1.18597 0.87592,1.17822 0.87592,3.27887 z m -1.50379,0.0388 q 0,-1.5658 -0.53485,-2.34094 -0.53485,-0.77515 -1.64331,-0.77515 -0.62787,0 -1.26349,0.2713 -0.63562,0.2713 -1.21698,0.71314 v 4.90667 q 0.62012,0.27906 1.06195,0.37982 0.44959,0.10077 1.01545,0.10077 1.21698,0 1.8991,-0.82165 0.68213,-0.82166 0.68213,-2.43396 z m 12.34551,0.21704 h -6.37946 q 0,0.7984 0.2403,1.39526 0.24029,0.58911 0.65887,0.96894 0.40308,0.37207 0.95343,0.5581 0.55811,0.18604 1.22473,0.18604 0.88367,0 1.77509,-0.34882 0.89917,-0.35657 1.27899,-0.69763 h 0.0775 v 1.58905 q -0.73639,0.31006 -1.50379,0.51935 -0.76739,0.20929 -1.6123,0.20929 -2.15491,0 -3.36414,-1.16272 -1.20923,-1.17047 -1.20923,-3.31763 0,-2.1239 1.15497,-3.37189 1.16272,-1.24798 3.05408,-1.24798 1.75183,0 2.69751,1.02319 0.95343,1.02319 0.95343,2.9068 z m -1.41852,-1.11621 q -0.008,-1.14722 -0.58136,-1.77509 -0.56586,-0.62787 -1.72858,-0.62787 -1.17047,0 -1.8681,0.68988 -0.68988,0.68989 -0.7829,1.71308 z m 9.44646,5.21673 q -0.41083,0.10852 -0.89917,0.17829 -0.48059,0.0698 -0.86042,0.0698 -1.3255,0 -2.01538,-0.71313 -0.68988,-0.71314 -0.68988,-2.28669 v -4.60437 h -0.98443 v -1.22473 h 0.98443 v -2.48822 h 1.45728 v 2.48822 h 3.00757 v 1.22473 h -3.00757 v 3.9455 q 0,0.68213 0.031,1.0697 0.031,0.37982 0.21705,0.71314 0.17053,0.31006 0.46508,0.45733 0.30231,0.13953 0.91468,0.13953 0.35656,0 0.74414,-0.10077 0.38757,-0.10852 0.5581,-0.17828 h 0.0775 z m 4.6483,-10.03039 h -1.64331 v -1.51154 h 1.64331 z m -0.093,10.10791 h -1.45728 v -8.65839 h 1.45728 z m 8.70231,-0.0775 q -0.41083,0.10852 -0.89917,0.17829 -0.48059,0.0698 -0.86041,0.0698 -1.32551,0 -2.01539,-0.71313 -0.68988,-0.71314 -0.68988,-2.28669 v -4.60437 h -0.98443 v -1.22473 h 0.98443 v -2.48822 h 1.45728 v 2.48822 h 3.00757 v 1.22473 h -3.00757 v 3.9455 q 0,0.68213 0.031,1.0697 0.031,0.37982 0.21704,0.71314 0.17053,0.31006 0.46508,0.45733 0.30231,0.13953 0.91468,0.13953 0.35656,0 0.74414,-0.10077 0.38757,-0.10852 0.5581,-0.17828 h 0.0775 z m 4.6483,-10.03039 h -1.64331 v -1.51154 h 1.64331 z m -0.093,10.10791 h -1.45727 v -8.65839 h 1.45727 z m 11.58586,-4.32532 q 0,2.11615 -1.0852,3.34088 -1.08521,1.22473 -2.9068,1.22473 -1.8371,0 -2.9223,-1.22473 -1.07746,-1.22473 -1.07746,-3.34088 0,-2.11615 1.07746,-3.34088 1.0852,-1.23248 2.9223,-1.23248 1.82159,0 2.9068,1.23248 1.0852,1.22473 1.0852,3.34088 z m -1.50378,0 q 0,-1.68207 -0.65888,-2.49597 -0.65887,-0.82166 -1.82934,-0.82166 -1.18598,0 -1.84485,0.82166 -0.65112,0.8139 -0.65112,2.49597 0,1.62781 0.65887,2.47272 0.65887,0.83716 1.8371,0.83716 1.16272,0 1.82159,-0.82941 0.66663,-0.83716 0.66663,-2.48047 z m 12.32224,4.32532 h -1.45728 v -4.92993 q 0,-0.59687 -0.0698,-1.11621 -0.0698,-0.5271 -0.2558,-0.82166 -0.19378,-0.32556 -0.5581,-0.48059 -0.36432,-0.16278 -0.94568,-0.16278 -0.59686,0 -1.24799,0.29456 -0.65112,0.29455 -1.24798,0.75189 v 6.46472 h -1.45728 v -8.65839 h 1.45728 v 0.96118 q 0.68213,-0.56585 1.41076,-0.88366 0.72864,-0.31781 1.49604,-0.31781 1.40301,0 2.1394,0.84491 0.73639,0.84491 0.73639,2.43396 z"
     id="text2"
     aria-label="KPI Competition" /></svg>
